<?xml version="1.0" standalone="no"?>
<!DOCTYPE svg PUBLIC "-//W3C//DTD SVG 20010904//EN"
 "http://www.w3.org/TR/2001/REC-SVG-20010904/DTD/svg10.dtd">
<svg version="1.0" xmlns="http://www.w3.org/2000/svg"
 width="800.000000pt" height="800.000000pt" viewBox="0 0 800.000000 800.000000"
 preserveAspectRatio="xMidYMid meet">
<metadata>
Created by potrace 1.11, written by Peter Selinger 2001-2013
</metadata>
<g transform="translate(0.000000,800.000000) scale(0.100000,-0.100000)"
fill="#000000" stroke="none">
<path d="M4825 7938 c-123 -10 -324 -63 -505 -132 -238 -92 -535 -284 -1162
-752 l-123 -92 -39 20 c-92 47 -224 66 -441 64 -143 -2 -169 -5 -249 -29 -209
-65 -401 -181 -561 -341 -115 -114 -182 -210 -235 -335 -51 -119 -70 -198 -77
-322 -7 -123 5 -207 48 -332 l30 -88 -134 -147 c-150 -164 -209 -232 -352
-407 -54 -66 -119 -134 -144 -151 -112 -76 -277 -252 -381 -408 -247 -368
-481 -1072 -456 -1371 18 -213 81 -345 253 -526 277 -291 684 -518 1032 -575
124 -20 278 -15 436 15 63 12 104 15 110 9 23 -21 8 -174 -40 -408 -40 -197
-49 -258 -53 -378 -6 -212 24 -382 106 -584 103 -256 255 -421 447 -485 74
-25 92 -27 255 -27 202 0 292 15 514 88 266 88 768 305 925 401 32 19 61 35
64 35 3 0 24 -34 47 -75 99 -179 228 -299 426 -399 234 -117 529 -174 849
-163 415 14 684 126 1175 493 207 154 359 286 536 466 277 279 420 456 485
595 80 171 156 534 153 728 -2 128 -15 489 -20 530 -2 22 -7 69 -10 105 -3 36
-14 98 -25 139 -11 41 -18 80 -15 87 3 7 -8 48 -23 92 -26 74 -38 100 -68 157
-6 11 -21 40 -33 65 -37 71 -270 326 -359 391 l-35 26 132 88 c221 148 315
247 424 447 98 182 176 416 179 538 1 30 6 63 11 73 5 9 5 23 1 30 -4 6 -8 55
-9 107 0 52 -5 124 -9 160 -5 36 -9 74 -10 85 -1 16 -11 79 -20 125 -4 19 -83
162 -106 191 -16 20 -29 41 -29 46 0 5 -11 20 -25 33 -14 13 -25 28 -25 32 0
16 -106 150 -155 196 -25 24 -45 47 -45 52 0 5 -9 12 -20 15 -11 4 -18 10 -15
15 3 5 -5 12 -17 16 -13 4 -39 20 -60 37 -24 19 -96 50 -210 89 -252 86 -251
86 -336 98 -43 6 -88 12 -99 14 -64 13 -210 21 -363 21 -175 -1 -293 -17 -430
-58 l-45 -14 -2 226 c-3 326 -20 430 -103 616 -10 22 -25 65 -35 95 -25 80
-50 130 -85 170 -32 36 -55 72 -66 103 -3 9 -11 17 -18 17 -6 0 -17 9 -24 20
-18 29 -31 25 -48 -16 -19 -44 -11 -56 10 -17 l16 28 -6 -26 c-6 -30 13 -49
28 -28 6 10 8 0 7 -31 -3 -71 -2 -73 26 -66 18 5 25 2 25 -7 0 -8 11 -26 26
-42 23 -25 24 -29 10 -44 -17 -19 -22 -46 -7 -37 5 4 12 0 15 -6 3 -7 4 -1 1
14 -4 22 -2 26 10 22 17 -7 18 -23 6 -76 -5 -22 -5 -38 0 -38 5 0 9 -11 9 -24
0 -14 5 -28 10 -31 6 -3 10 -18 10 -33 0 -15 7 -47 16 -71 8 -24 13 -50 10
-58 -3 -7 -1 -13 4 -13 5 0 7 -19 4 -42 -6 -51 -5 -128 2 -140 3 -5 7 -34 10
-65 3 -44 0 -61 -14 -76 -12 -14 -13 -21 -5 -24 8 -3 9 -12 4 -26 -5 -12 -15
-42 -22 -67 -7 -25 -16 -50 -21 -56 -5 -6 -6 -18 -3 -26 4 -9 -1 -22 -9 -31
-10 -10 -16 -34 -16 -64 0 -27 -5 -54 -11 -60 -7 -7 -6 -15 5 -26 21 -21 20
-27 -4 -27 -19 0 -24 -14 -23 -57 1 -7 -9 -13 -22 -13 -18 0 -25 9 -35 45 -7
25 -17 45 -22 45 -6 0 -8 9 -5 20 3 12 1 18 -5 14 -6 -4 -14 0 -19 7 -6 9 -9
-1 -10 -31 -2 -60 1 -84 11 -90 13 -8 -20 -70 -37 -70 -11 0 -13 7 -9 24 3 14
1 26 -5 28 -8 3 -8 14 -1 41 8 29 8 37 -3 37 -7 0 -15 8 -17 17 -2 9 -8 -2
-14 -25 -7 -26 -7 -39 -1 -35 7 4 7 -9 2 -38 -4 -24 -8 -52 -8 -61 -1 -10 -5
-18 -10 -18 -5 0 -7 11 -5 25 7 35 -8 41 -18 7 -4 -15 -7 -30 -6 -34 1 -5 -2
-8 -8 -8 -5 0 -10 -10 -10 -23 0 -13 -5 -28 -12 -35 -9 -9 -9 -12 3 -12 19 0
14 -54 -7 -71 -17 -14 -19 -60 -3 -57 6 2 13 -2 16 -9 3 -7 -3 -9 -17 -6 -20
5 -21 4 -9 -16 8 -11 17 -21 22 -21 4 0 6 3 4 8 -3 4 1 13 9 19 20 19 25 1 5
-22 -21 -25 -41 -30 -41 -9 0 10 -6 14 -15 10 -8 -3 -19 2 -24 11 -8 14 -12
15 -25 4 -19 -16 -46 -8 -46 14 0 24 -17 18 -24 -9 -3 -13 -9 -32 -12 -41 -6
-14 -3 -16 14 -10 19 5 22 2 22 -22 0 -22 2 -25 10 -13 9 13 11 13 20 0 14
-21 12 -30 -4 -24 -8 3 -17 1 -21 -5 -3 -6 1 -11 9 -11 21 0 62 -41 58 -58 -2
-8 3 -21 10 -30 11 -14 11 -15 -5 -9 -11 4 -17 2 -16 -6 4 -29 -2 -39 -17 -33
-10 4 -22 -1 -30 -11 -11 -16 -13 -12 -9 28 2 30 -1 46 -8 46 -7 0 -18 2 -26
4 -7 2 -16 -2 -18 -9 -3 -8 1 -10 11 -6 9 3 16 1 16 -4 0 -6 -12 -12 -27 -14
-19 -2 -29 -10 -31 -23 -2 -11 -13 -25 -25 -30 -21 -10 -44 -75 -26 -75 5 0 9
-8 9 -17 0 -10 4 -14 8 -8 11 16 50 16 56 0 3 -8 1 -15 -4 -15 -6 0 -10 -7
-10 -15 0 -8 -4 -15 -10 -15 -5 0 -7 6 -4 14 6 15 -19 17 -32 3 -14 -13 -36
-7 -30 8 4 13 2 13 -14 5 -24 -13 -40 -13 -20 0 13 9 13 11 0 20 -14 9 -20 4
-22 -17 -1 -5 -8 -13 -17 -20 -13 -9 -8 -11 28 -7 37 4 43 3 37 -11 -3 -9 -2
-13 4 -10 6 3 10 -1 10 -9 0 -8 9 -18 21 -21 34 -11 3 -36 -40 -31 -28 3 -35
8 -33 21 2 10 -1 14 -7 10 -18 -10 -13 -29 12 -45 21 -14 27 -16 55 -19 7 0
10 -6 6 -12 -3 -6 0 -16 7 -21 11 -8 10 -8 -4 -4 -10 3 -23 6 -28 6 -6 0 -7 5
-4 10 3 6 -1 10 -9 10 -9 0 -16 5 -16 11 0 6 -6 7 -12 2 -7 -4 -22 -7 -32 -8
-11 0 -21 -6 -24 -14 -3 -10 1 -12 16 -9 13 4 23 0 26 -9 9 -23 7 -26 -14 -20
-27 7 -25 -1 3 -13 21 -8 20 -9 -8 -10 -30 0 -57 -12 -56 -24 3 -21 -1 -26
-21 -26 -19 0 -20 2 -8 11 10 7 11 12 4 15 -6 3 -9 16 -6 29 4 23 3 23 -21 12
-14 -6 -22 -17 -19 -22 4 -6 0 -3 -10 7 -20 22 -28 23 -28 3 0 -8 -9 -15 -20
-15 -11 0 -20 -7 -20 -16 0 -11 -6 -14 -20 -9 -11 4 -20 2 -20 -4 0 -6 9 -11
19 -11 28 0 51 -10 51 -23 0 -7 -4 -7 -12 1 -7 7 -16 12 -22 12 -5 0 1 -8 12
-18 l22 -19 -40 -12 c-22 -6 -40 -16 -40 -21 0 -5 -6 -7 -14 -4 -11 4 -14 -1
-12 -21 3 -19 0 -25 -10 -21 -13 5 -19 -13 -15 -38 1 -5 -7 -6 -18 -3 -14 3
-18 1 -14 -9 3 -8 0 -14 -6 -14 -6 0 -11 9 -11 19 0 11 -5 23 -10 26 -6 4 -10
3 -9 -2 4 -25 -1 -35 -15 -24 -11 9 -15 5 -19 -19 -4 -16 -11 -30 -17 -30 -6
0 -6 9 0 26 13 33 13 33 -9 31 -13 -1 -17 -7 -13 -20 3 -10 -1 -23 -9 -28 -11
-7 -10 -11 5 -22 19 -14 19 -14 -1 -19 -16 -4 -19 -1 -18 24 1 16 -4 35 -11
42 -9 10 -10 16 -2 24 16 16 1 27 -16 13 -13 -11 -15 -8 -13 16 1 15 7 28 12
29 20 2 84 34 92 47 4 7 20 20 35 29 20 13 28 14 32 5 4 -6 4 0 1 16 -4 22 -2
27 15 27 12 0 18 -4 15 -10 -12 -19 8 -10 28 13 l19 22 -7 -24 c-5 -17 -4 -21
5 -16 7 4 10 20 8 36 -3 17 1 30 9 33 7 3 10 12 7 21 -5 11 -2 14 10 9 9 -3
16 -12 16 -20 0 -8 5 -14 11 -14 5 0 7 5 4 10 -3 6 -1 10 4 10 6 0 11 4 11 10
0 5 -7 6 -17 3 -10 -4 -14 -2 -9 5 3 6 2 13 -4 17 -6 4 -7 11 -4 17 5 7 12 5
20 -7 8 -10 17 -16 20 -12 4 3 14 -1 22 -10 13 -12 17 -13 21 -2 2 7 -1 15 -7
17 -7 2 -12 9 -12 17 0 7 -7 18 -15 25 -28 23 -16 32 33 25 41 -5 51 -3 66 14
11 12 25 21 33 21 7 0 16 7 20 16 9 25 49 64 64 64 11 0 11 2 -1 10 -12 7 -12
12 -2 22 15 15 16 28 2 28 -5 0 -10 -8 -10 -17 0 -16 -1 -16 -16 -2 -19 20
-10 71 12 62 8 -3 14 -13 15 -22 0 -12 2 -11 8 4 9 22 4 38 -9 30 -5 -3 -15
13 -21 36 -10 31 -10 45 -1 59 9 15 9 22 -2 32 -7 7 -11 19 -8 27 3 8 0 11 -7
7 -7 -4 -11 0 -11 12 0 11 -6 25 -14 31 -19 16 -9 87 15 102 11 7 9 9 -8 9
-14 0 -23 -6 -23 -15 0 -18 -37 -40 -42 -24 -2 5 -12 12 -23 13 -11 2 -19 9
-18 14 2 6 -4 9 -11 6 -17 -7 -41 32 -26 41 5 3 10 18 10 32 0 21 -3 23 -14
14 -11 -9 -19 -5 -40 20 -14 17 -24 35 -20 40 3 5 0 9 -7 9 -7 0 -9 10 -6 30
5 25 2 32 -24 47 -18 11 -27 23 -24 32 5 12 3 12 -12 0 -15 -12 -16 -12 -10 4
6 16 -8 23 -37 18 -5 -1 -6 7 -3 18 3 12 0 19 -6 18 -6 -1 -13 6 -15 17 -2 11
0 16 7 12 6 -4 11 -2 11 3 0 6 -4 11 -10 11 -5 0 -10 6 -10 14 0 19 -32 30
-41 14 -6 -9 -10 -8 -15 5 -5 13 -10 15 -19 7 -10 -8 -16 -1 -28 27 -9 21 -16
33 -16 26 -1 -20 -54 -6 -76 21 -11 14 -31 26 -43 26 -19 0 -84 13 -132 27 -8
2 -16 4 -17 4 -2 0 -16 4 -33 9 -25 7 -30 6 -31 -8 0 -11 -2 -12 -6 -4 -2 6
-9 10 -14 6 -5 -3 -9 2 -9 10 0 9 7 16 15 16 15 0 15 35 0 60 -3 5 -2 10 2 10
5 0 17 15 27 34 15 27 16 38 6 56 -6 12 -9 29 -5 38 7 19 4 28 -7 25 -5 -2 -8
1 -8 6 0 5 14 14 30 20 31 10 31 11 34 -31 1 -7 -6 -13 -14 -13 -8 0 -16 -7
-18 -16 -2 -13 3 -15 23 -12 21 5 25 11 25 43 0 37 19 58 41 44 5 -3 9 0 9 7
0 8 5 7 17 -2 15 -13 16 -11 11 14 -3 15 -1 30 3 33 5 3 9 0 9 -6 0 -7 8 -9
20 -5 12 4 20 2 20 -5 0 -7 8 -10 20 -7 11 3 22 1 25 -3 3 -5 30 16 60 47 30
30 53 59 49 64 -3 5 -11 6 -17 3 -7 -4 -9 -4 -5 1 4 4 3 16 -3 27 -7 14 -6 22
6 34 8 8 15 23 15 32 0 13 2 13 15 -4 9 -12 14 -14 15 -5 0 7 6 11 15 7 8 -3
15 -1 15 4 0 6 7 10 15 10 8 0 15 4 15 9 0 8 41 23 48 18 2 -1 10 11 18 26 8
15 18 26 22 23 4 -2 13 8 21 24 7 16 21 32 31 35 10 3 21 17 24 30 4 16 13 25
26 25 11 0 21 3 21 8 1 4 3 17 4 30 1 12 4 24 6 25 2 2 16 11 32 20 15 10 27
24 27 31 0 8 11 17 24 20 13 3 42 24 66 47 24 24 45 37 49 31 9 -15 47 19 55
51 7 30 30 36 44 11 6 -11 11 -13 16 -5 10 16 46 13 46 -4 0 -20 26 -19 34 1
10 27 7 44 -9 44 -8 0 -15 5 -15 11 0 5 -4 7 -10 4 -15 -10 -12 6 6 26 20 22
9 46 -12 28 -9 -7 -14 -8 -14 -1 0 5 -9 8 -20 5 -11 -3 -20 0 -20 6 0 5 -7 8
-15 5 -8 -4 -15 -1 -15 5 0 21 45 81 57 76 7 -2 21 8 32 23 17 23 20 24 21 8
0 -11 3 -16 7 -13 3 4 13 1 21 -5 11 -10 18 -7 34 12 l19 25 -6 -31 c-3 -16
-2 -41 3 -54 l9 -25 15 30 c8 17 18 43 22 59 6 22 10 26 16 16 5 -8 3 -25 -6
-41 -20 -39 -18 -56 9 -63 15 -4 26 0 36 14 20 29 31 24 25 -10 -9 -41 2 -38
21 6 19 45 12 57 -59 114 -31 25 -56 48 -56 52 0 5 -5 8 -11 8 -6 0 -41 15
-79 34 -86 43 -209 83 -286 91 -32 4 -61 8 -64 9 -3 1 -45 -1 -95 -6z m306
-315 c-9 -16 -10 -15 -11 8 0 14 3 29 8 33 12 12 14 -22 3 -41z m624 -384 c7
-20 -7 -38 -27 -39 -10 0 -10 22 -2 44 9 22 21 20 29 -5z m15 -93 c0 -3 -4 -8
-10 -11 -5 -3 -10 -1 -10 4 0 6 5 11 10 11 6 0 10 -2 10 -4z m43 -173 c4 -3 0
-17 -8 -32 -7 -15 -10 -33 -5 -41 4 -8 7 -52 6 -97 0 -46 1 -83 4 -83 3 0 6
-24 7 -52 1 -47 0 -51 -12 -34 -10 13 -11 24 -4 37 6 13 6 19 -1 19 -5 0 -10
11 -10 24 0 14 -5 28 -10 31 -6 4 -8 11 -5 16 4 5 -1 36 -9 70 -15 55 -14 63
0 91 12 24 15 46 10 90 -9 80 5 98 20 25 6 -32 14 -60 17 -64z m-2862 -132 c0
11 2 11 6 2 2 -7 10 -13 17 -13 20 0 66 -40 66 -57 0 -8 -6 -13 -13 -10 -21 8
-38 -18 -23 -38 11 -15 13 -15 25 -1 7 8 19 12 28 9 12 -5 14 -1 8 15 -5 18
-2 22 14 22 15 0 19 4 14 18 -6 16 -6 16 10 0 9 -9 17 -21 17 -27 0 -6 4 -11
9 -11 8 0 7 -69 -4 -140 -3 -19 -2 -29 1 -22 9 19 18 14 30 -15 15 -37 18 -96
4 -88 -5 3 -10 1 -10 -4 0 -6 -7 -11 -16 -11 -12 0 -15 -6 -11 -22 5 -20 3
-19 -18 7 -24 28 -25 29 -25 8 0 -13 -4 -22 -9 -20 -5 1 -9 -1 -10 -5 -3 -22
0 -28 14 -28 34 0 7 -41 -29 -43 -17 -2 -26 -8 -26 -19 0 -21 -18 -23 -43 -3
-11 7 -25 11 -32 9 -7 -3 -16 -1 -19 5 -5 7 -14 7 -31 -1 -27 -12 -45 -44 -19
-34 36 14 64 18 64 8 0 -15 -26 -33 -35 -24 -4 4 -3 -3 4 -15 9 -18 8 -24 -6
-31 -10 -5 -24 -7 -32 -4 -8 2 -11 0 -7 -6 3 -5 -1 -13 -10 -16 -8 -3 -12 -2
-9 4 4 6 -5 7 -23 4 -27 -6 -30 -3 -36 28 -4 22 -12 35 -22 35 -8 0 -13 -6
-10 -13 5 -12 -17 -38 -25 -30 -2 3 -3 -13 -3 -35 2 -34 -1 -40 -23 -45 -15
-4 -28 -2 -32 5 -5 7 -14 11 -22 9 -9 -2 -13 5 -12 20 2 13 -1 21 -7 17 -11
-7 -29 25 -23 42 6 16 -18 28 -27 14 -5 -8 -12 -4 -24 13 -9 14 -12 26 -7 26
5 0 11 -5 13 -12 2 -6 15 -12 29 -14 13 -1 33 -4 44 -6 14 -2 20 2 19 15 -1 9
2 17 6 17 5 0 6 10 2 22 -3 14 -2 19 6 14 7 -4 12 -2 12 3 0 6 9 11 21 11 25
0 54 26 39 35 -5 3 -10 1 -10 -5 0 -7 -6 -10 -12 -7 -15 4 -12 45 4 65 7 8 7
12 0 12 -6 0 -14 -5 -18 -11 -5 -8 -13 -4 -26 12 l-19 24 6 -38 c4 -27 3 -37
-4 -32 -6 3 -11 13 -11 21 0 8 -5 13 -11 12 -6 -2 -14 3 -16 10 -3 6 0 12 6
12 6 0 11 7 11 15 0 8 -4 15 -9 15 -5 0 -7 8 -4 19 3 10 0 22 -6 25 -8 5 -8
13 0 29 7 11 12 34 11 50 -1 23 2 26 14 17 7 -7 11 -16 8 -21 -3 -5 -2 -14 2
-20 4 -8 9 -7 14 2 10 15 50 -45 50 -73 0 -22 7 -23 26 -3 14 13 14 17 -1 31
-8 9 -13 24 -10 33 3 11 -3 25 -17 37 -18 15 -20 16 -9 2 9 -12 10 -18 2 -18
-6 0 -12 5 -12 10 -1 6 -2 16 -3 23 -4 21 5 28 20 16 20 -17 28 -5 9 14 -8 9
-15 19 -15 23 0 5 5 3 12 -4 7 -7 21 -12 33 -12 20 0 20 1 -1 18 -25 20 -37
61 -24 82 7 12 10 11 15 -5 17 -53 39 -69 50 -35 4 14 12 19 22 16 11 -4 13
-2 9 9 -7 20 10 19 26 0 34 -41 64 -65 76 -60 8 3 23 5 35 5 20 0 20 1 -4 27
-18 20 -20 25 -6 20 28 -10 20 20 -13 50 -16 14 -30 31 -30 37 1 6 10 0 20
-13 13 -14 20 -18 21 -10z m-141 -31 c0 -5 -4 -10 -9 -10 -6 0 -13 5 -16 10
-3 6 1 10 9 10 9 0 16 -4 16 -10z m387 -137 c6 -2 13 4 16 14 3 12 5 9 6 -9 0
-14 -4 -28 -11 -30 -8 -3 -9 -17 -1 -56 7 -36 7 -52 0 -49 -14 4 -36 93 -36
142 1 32 2 35 8 16 4 -14 12 -26 18 -28z m998 6 c-10 -15 -25 -10 -19 6 4 8
10 12 15 9 5 -3 7 -10 4 -15z m-1588 -65 c-9 -9 -28 6 -21 18 4 6 10 6 17 -1
6 -6 8 -13 4 -17z m1593 12 c0 -10 -8 -13 -24 -10 -20 3 -23 1 -19 -20 3 -13
-1 -27 -8 -31 -9 -6 -11 -4 -6 7 3 9 -1 25 -8 35 -13 19 -12 20 17 21 16 0 33
3 36 6 9 9 12 7 12 -8z m-1040 0 c0 -11 -19 -15 -25 -6 -3 5 1 10 9 10 9 0 16
-2 16 -4z m-600 -71 c13 -25 20 -48 17 -51 -11 -11 -38 18 -33 33 3 8 -1 28
-10 45 -9 16 -12 28 -7 25 5 -3 20 -26 33 -52z m1570 16 c-5 -10 -6 -21 -2
-25 3 -4 -1 -4 -11 0 -20 7 -22 20 -4 38 17 19 29 9 17 -13z m-43 -52 c-15
-24 -20 -18 -11 16 4 18 9 23 14 14 5 -7 3 -20 -3 -30z m-1570 -19 c1 -11 -2
-18 -8 -15 -11 7 -12 35 -1 35 4 0 8 -9 9 -20z m3247 6 c-3 -8 -13 -17 -21
-20 -13 -5 -14 -4 -4 8 9 11 9 15 -1 19 -7 3 -3 6 9 6 15 1 21 -3 17 -13z
m-1841 -56 c17 -24 17 -24 17 -2 0 12 6 23 13 23 6 1 22 3 35 4 12 1 25 -2 29
-7 9 -15 -17 -27 -46 -22 l-26 5 23 -23 c18 -18 24 -20 31 -9 13 20 23 -3 15
-34 -3 -14 -10 -25 -15 -25 -5 0 -9 -6 -9 -13 0 -7 -20 -34 -43 -60 -24 -26
-42 -47 -41 -47 2 0 -12 -27 -31 -59 -19 -33 -35 -66 -35 -75 0 -8 -9 -21 -19
-28 -10 -7 -26 -30 -34 -51 -17 -39 -40 -47 -78 -27 -13 7 -19 7 -19 0 0 -5
-9 -10 -19 -10 -16 0 -18 -5 -11 -35 8 -37 1 -45 -20 -21 -6 8 -18 12 -26 9
-8 -3 -14 0 -14 6 0 9 -5 9 -20 1 -16 -9 -20 -8 -20 6 0 9 -6 14 -13 11 -7 -3
-23 6 -36 19 -14 14 -17 22 -8 18 8 -3 18 0 23 7 4 8 3 10 -4 5 -7 -4 -12 -2
-12 3 0 6 3 12 8 12 36 6 49 4 49 -8 0 -8 -6 -12 -16 -8 -8 3 -12 3 -8 -1 4
-4 2 -13 -4 -21 -9 -10 -6 -13 15 -13 14 0 26 5 26 10 0 6 9 10 20 10 11 0 20
4 20 10 0 6 9 6 26 0 20 -8 25 -7 21 2 -2 7 -11 13 -20 13 -24 0 -33 15 -17
26 11 8 10 9 -7 4 -14 -4 -23 -2 -23 5 0 6 4 9 9 5 5 -3 13 0 17 6 3 6 0 15
-7 20 -11 7 -11 9 -1 9 8 0 10 5 6 13 -4 6 -4 9 1 5 4 -4 15 -2 23 5 13 10 15
9 9 -5 -3 -10 -2 -20 4 -23 5 -4 12 7 15 24 4 17 14 33 25 36 15 5 16 11 9 30
-8 20 -6 25 13 31 12 5 24 9 27 10 3 1 15 5 28 9 12 4 22 11 22 16 0 13 -14
11 -28 -3 -16 -16 -26 -3 -14 19 8 13 7 22 -5 35 -15 17 -15 18 1 18 9 0 14 5
11 10 -3 6 -2 10 4 10 5 0 11 -6 14 -12 3 -10 7 -10 20 1 19 15 23 41 7 41 -5
0 -10 -5 -10 -12 0 -9 -3 -8 -12 1 -10 11 -10 14 0 18 6 3 12 13 12 24 0 16 6
19 33 17 17 -1 37 -5 42 -9 6 -4 19 -1 29 7 19 13 19 14 2 14 -14 0 -16 3 -7
13 13 16 5 28 -15 20 -15 -6 -17 -2 -8 21 7 17 16 10 47 -34z m137 46 c0 -3
-4 -8 -10 -11 -5 -3 -10 -1 -10 4 0 6 5 11 10 11 6 0 10 -2 10 -4z m-293 -111
c0 -8 -4 -15 -9 -15 -10 0 -11 14 -1 23 9 10 10 9 10 -8z m-1285 -32 c-6 -2
-9 -10 -6 -15 4 -7 2 -8 -5 -4 -13 9 -5 26 12 25 9 0 8 -2 -1 -6z m2158 -55
c0 -4 -6 -5 -14 -2 -8 3 -12 12 -9 21 5 12 7 12 14 1 5 -7 9 -16 9 -20z
m-2133 -8 c-2 -24 -17 -15 -17 11 0 11 4 18 9 14 6 -3 9 -14 8 -25z m43 1 c0
-6 -4 -13 -10 -16 -5 -3 -10 1 -10 9 0 9 5 16 10 16 6 0 10 -4 10 -9z m6 -89
c4 4 1 15 -7 24 -13 16 -12 16 9 5 24 -13 29 -27 10 -34 -10 -3 -10 -9 0 -26
18 -32 -2 -25 -28 9 -12 16 -25 28 -29 26 -3 -2 -7 6 -7 19 -2 24 -2 24 21 -3
13 -15 27 -24 31 -20z m1124 44 c0 -2 -7 -7 -16 -10 -8 -3 -12 -2 -9 4 6 10
25 14 25 6z m-1055 -85 c5 -31 4 -33 -11 -20 -20 17 -33 50 -26 67 8 21 30 -7
37 -47z m1062 27 c-3 -8 -6 -5 -6 6 -1 11 2 17 5 13 3 -3 4 -12 1 -19z m3093
-8 c0 -7 6 -7 19 0 25 13 38 13 26 1 -13 -13 -75 -23 -75 -13 0 5 3 12 7 15
10 10 23 8 23 -3z m120 -4 c0 -8 -4 -18 -10 -21 -5 -3 -10 -1 -10 4 0 6 -7 11
-16 11 -8 0 -12 5 -9 10 9 15 45 12 45 -4z m-1426 -11 c-4 -8 -8 -15 -10 -15
-2 0 -4 7 -4 15 0 8 4 15 10 15 5 0 7 -7 4 -15z m388 -47 c-2 -35 -1 -40 8
-25 7 10 9 24 7 31 -3 7 -2 18 2 25 6 9 21 5 57 -13 45 -23 159 -49 187 -42 7
1 9 1 5 -1 -16 -9 -7 -22 18 -25 l25 -3 -21 -22 c-15 -16 -32 -23 -60 -23 -22
0 -40 -4 -40 -10 0 -5 5 -10 12 -10 6 0 1 -11 -11 -24 -14 -15 -30 -22 -44
-20 -22 4 -12 -1 32 -18 22 -8 23 -10 7 -27 -15 -17 -15 -19 -1 -25 9 -3 14
-2 11 3 -3 5 9 9 28 8 28 -1 33 -4 26 -16 -11 -21 -51 -55 -70 -59 -8 -2 -43
-6 -77 -11 -65 -7 -104 -25 -43 -19 29 2 35 0 35 -17 0 -14 -14 -27 -47 -42
-34 -16 -48 -29 -48 -43 0 -12 5 -17 14 -14 7 3 16 -2 20 -11 4 -10 2 -14 -5
-9 -6 4 -14 2 -18 -2 -3 -5 -33 -18 -65 -29 -33 -11 -61 -26 -63 -32 -3 -9 5
-9 31 2 30 13 35 13 30 1 -4 -11 4 -14 38 -13 24 1 49 6 56 10 7 5 12 4 12 -3
0 -6 12 -5 34 4 30 13 36 13 47 0 15 -18 53 -18 68 0 7 8 31 18 54 22 23 4 49
9 57 10 8 2 43 9 78 15 41 8 62 17 62 26 0 15 46 36 64 30 6 -3 19 0 28 5 22
11 12 39 -10 31 -9 -4 -14 -3 -10 2 4 4 15 9 25 10 52 5 103 19 103 26 0 5 12
9 28 9 15 0 34 5 42 11 11 8 4 9 -25 4 -79 -12 -208 -11 -213 3 -4 13 63 46
78 37 4 -3 20 -1 33 4 20 8 27 6 31 -6 4 -10 12 -13 24 -8 9 4 33 9 52 11 70
6 112 13 118 18 11 12 -9 19 -57 20 -27 0 -48 3 -45 5 2 2 29 14 60 27 38 15
54 18 50 9 -3 -8 5 -16 20 -19 20 -5 31 0 53 23 21 22 24 31 15 35 -24 9 -15
21 32 40 64 26 242 24 294 -4 9 -5 25 -9 36 -9 55 -1 58 -3 33 -22 -13 -10
-33 -25 -44 -34 -20 -16 -20 -16 2 -10 19 5 22 3 16 -12 -3 -10 -3 -15 1 -11
4 3 20 2 34 -3 20 -7 41 -4 79 10 42 15 60 17 86 9 28 -9 33 -14 29 -34 -3
-18 0 -24 12 -24 11 0 14 -5 10 -12 -5 -7 0 -9 14 -6 15 4 19 2 15 -8 -3 -8 1
-14 11 -14 9 0 20 -8 23 -17 10 -27 43 -53 67 -53 12 0 35 14 53 30 32 30 53
38 53 20 0 -5 -6 -10 -12 -10 -9 0 -9 -3 -3 -8 12 -8 13 -22 2 -40 -7 -10 -2
-11 18 -6 19 5 25 3 23 -7 -2 -8 7 -15 20 -17 29 -4 67 -25 69 -37 0 -6 3 -19
5 -29 2 -13 -9 -28 -32 -44 -19 -14 -26 -21 -15 -17 37 14 65 17 65 8 0 -17
-44 -30 -72 -22 -17 4 -28 3 -28 -2 0 -6 -4 -7 -10 -4 -20 12 -32 -7 -15 -25
9 -10 17 -27 18 -39 1 -14 6 -20 16 -16 11 4 12 3 1 -10 -10 -12 -9 -16 3 -21
9 -3 13 -12 10 -20 -3 -8 0 -20 6 -28 9 -10 8 -15 -4 -20 -13 -5 -13 -8 4 -25
17 -17 19 -30 15 -73 -5 -55 -28 -88 -63 -88 -9 0 -23 -5 -31 -11 -11 -8 -6
-9 23 -5 30 4 38 2 34 -8 -3 -8 0 -19 6 -26 9 -10 8 -12 -5 -7 -22 8 -114 -23
-99 -33 8 -4 3 -16 -14 -34 -29 -31 -32 -41 -10 -32 13 4 14 2 5 -14 -6 -11
-19 -20 -30 -20 -40 0 -150 -50 -152 -69 0 -9 -2 -21 -2 -27 -2 -20 -27 -43
-42 -37 -7 3 -11 9 -8 14 3 5 0 9 -6 9 -7 0 -10 7 -6 15 3 8 1 15 -4 15 -6 0
-10 -7 -10 -15 0 -8 -5 -15 -11 -15 -8 0 -8 -4 0 -14 14 -16 4 -43 -24 -66 -9
-7 -13 -21 -10 -31 8 -24 -13 -34 -33 -15 -16 14 -20 13 -47 -4 -17 -11 -30
-23 -30 -27 -1 -5 -6 -17 -12 -29 -7 -11 -14 -33 -16 -48 -2 -15 -10 -32 -18
-37 -11 -7 -10 -9 6 -10 12 0 7 -5 -15 -12 -24 -7 -29 -12 -17 -14 23 -6 22
-23 -3 -23 -13 0 -18 -5 -14 -15 4 -8 1 -15 -5 -15 -6 0 -11 17 -11 37 0 36 0
36 -19 17 -10 -10 -16 -23 -13 -28 3 -5 -5 -7 -16 -4 -19 5 -21 3 -18 -18 3
-13 7 -28 10 -32 3 -5 0 -21 -7 -36 -13 -29 -35 -40 -89 -44 -9 -1 -20 -11
-23 -22 -4 -11 -10 -18 -15 -15 -10 6 -22 -23 -14 -36 3 -5 1 -9 -5 -9 -5 0
-14 8 -20 17 -9 17 -10 17 -28 0 -11 -9 -25 -17 -32 -17 -7 0 -10 -4 -7 -8 10
-17 14 -62 5 -62 -5 0 -9 5 -9 10 0 7 -8 6 -22 -1 -22 -12 -22 -12 -3 -19 20
-8 20 -8 0 -15 -11 -4 -32 -11 -47 -17 -21 -8 -31 -7 -42 5 -8 8 -12 17 -9 21
4 3 2 6 -4 6 -37 0 -8 -64 33 -72 9 -1 19 -9 22 -17 3 -9 -1 -11 -17 -6 -16 5
-20 3 -15 -9 3 -9 10 -16 16 -16 5 0 6 -4 3 -10 -11 -17 -38 -12 -31 6 5 12 2
15 -11 9 -10 -4 -26 -10 -35 -12 -19 -6 -25 -23 -8 -23 6 0 10 -4 10 -9 0 -12
-44 -22 -48 -11 -2 6 -8 10 -13 10 -6 0 -7 -4 -4 -10 3 -6 -4 -10 -16 -10 -21
0 -21 -1 -5 -19 16 -17 16 -19 -3 -24 -11 -2 -24 0 -29 5 -13 13 -54 0 -49
-15 2 -7 -3 -18 -11 -26 -11 -12 -18 -12 -34 -2 -17 11 -19 10 -18 -11 3 -36
1 -48 -10 -48 -5 0 -7 6 -4 13 3 8 -3 13 -15 13 -11 0 -18 -2 -16 -5 3 -2 0
-10 -6 -17 -7 -9 -7 -19 0 -33 15 -28 14 -31 -23 -73 -21 -24 -44 -39 -66 -43
-45 -8 -44 -7 -49 -71 -1 -13 -80 -36 -93 -28 -4 3 -5 -3 -1 -12 4 -12 2 -15
-8 -12 -8 3 -13 11 -11 17 3 15 -9 14 -35 -4 -16 -11 -22 -12 -26 -2 -2 6 -8
9 -12 4 -5 -4 -3 -13 3 -19 18 -18 14 -46 -7 -60 -16 -10 -18 -15 -8 -27 9
-12 9 -13 0 -7 -9 4 -13 1 -13 -9 0 -11 -5 -15 -15 -11 -18 7 -20 -5 -2 -23
10 -11 8 -12 -12 -6 -22 7 -23 5 -19 -24 3 -21 1 -28 -6 -22 -6 5 -21 7 -33 5
-24 -4 -32 11 -10 19 7 3 5 6 -5 6 -15 1 -16 5 -7 27 5 15 7 30 3 33 -4 3 -9
0 -11 -6 -3 -7 -11 -13 -19 -13 -7 0 -16 -11 -20 -25 -4 -16 -13 -25 -26 -25
-12 0 -17 -4 -12 -12 5 -8 2 -9 -10 -5 -14 6 -17 3 -12 -10 5 -15 3 -14 -10 2
-11 14 -18 16 -21 8 -3 -7 -12 -13 -20 -13 -13 0 -13 3 -3 15 15 18 -1 20 -19
3 -11 -11 -14 -10 -18 0 -4 10 -8 10 -19 2 -14 -13 -74 -4 -74 10 0 4 11 11
25 14 23 6 35 24 18 27 -52 8 -62 7 -56 -7 3 -9 -1 -14 -12 -14 -9 0 -13 5 -9
11 4 8 0 8 -15 0 -18 -10 -21 -9 -21 5 0 10 -3 15 -6 11 -10 -10 -64 14 -58
26 5 8 2 7 -6 0 -19 -18 -21 -40 -4 -54 12 -10 13 -9 8 5 -5 12 -2 15 10 10 9
-3 13 -11 10 -16 -4 -6 -1 -8 7 -6 8 3 19 -4 26 -16 7 -12 12 -16 13 -10 0 12
41 11 59 -1 19 -11 12 -27 -8 -20 -11 3 -22 1 -26 -5 -3 -5 -18 -10 -33 -11
-24 0 -24 -1 -7 -8 19 -8 19 -9 -5 -17 -14 -4 -28 -7 -32 -6 -5 1 -8 -3 -8 -9
0 -6 9 -9 20 -6 11 3 23 0 27 -5 3 -6 1 -8 -5 -4 -5 3 -12 0 -15 -6 -3 -10 -7
-10 -18 -2 -8 6 -27 14 -43 18 -26 6 -27 6 -12 -9 18 -18 21 -35 7 -35 -15 0
-40 41 -35 55 6 14 -22 28 -37 19 -5 -3 -9 3 -9 13 0 15 -2 16 -11 3 -8 -12
-9 -11 -4 6 5 20 2 21 -47 19 -29 -1 -63 -8 -76 -16 -28 -18 -38 -48 -21 -61
11 -7 9 -8 -4 -4 -10 3 -23 6 -28 6 -5 0 -9 5 -9 11 0 5 4 7 10 4 6 -3 7 1 4
10 -5 12 -10 13 -17 6 -19 -19 -36 -12 -53 20 -11 23 -19 28 -27 20 -17 -17
-29 -13 -22 9 6 20 -9 28 -20 10 -3 -5 -11 -10 -17 -10 -6 0 -4 8 5 18 8 9 19
31 23 47 8 36 24 48 41 33 18 -14 16 -31 -1 -25 -10 4 -13 1 -9 -9 5 -12 10
-11 32 10 l26 25 18 -22 17 -21 0 21 c0 12 -3 23 -7 26 -5 2 -1 1 7 -1 8 -3
25 -6 37 -6 15 -1 21 -6 18 -16 -6 -21 40 -43 55 -25 5 6 7 15 3 19 -4 4 0 4
10 0 12 -4 17 -1 17 11 0 9 -7 16 -17 14 -10 -1 -26 -1 -37 0 -15 1 -16 4 -6
16 7 9 10 19 6 22 -4 4 -11 1 -16 -7 -8 -12 -10 -10 -10 8 0 25 -27 31 -36 7
-4 -8 -10 -13 -15 -10 -4 3 -6 12 -2 20 3 10 -1 15 -13 16 -12 0 -14 3 -6 6 7
3 19 0 26 -6 7 -6 16 -8 19 -4 13 13 6 22 -22 28 -22 5 -28 10 -24 26 3 10 10
22 16 26 6 3 7 1 3 -5 -4 -7 -3 -12 3 -12 5 0 13 5 16 11 4 6 14 8 22 5 8 -3
11 -2 8 3 -3 5 -1 12 4 16 6 3 15 -4 21 -15 15 -28 28 -25 23 5 -3 13 -8 24
-12 23 -21 -2 -29 4 -24 22 3 11 10 20 15 20 5 0 7 -4 4 -8 -3 -5 7 -7 22 -4
17 2 32 13 40 30 17 37 15 42 -15 42 -21 0 -24 -3 -14 -9 12 -8 13 -12 1 -26
-12 -14 -15 -14 -32 5 -19 21 -34 27 -23 11 3 -5 1 -12 -4 -15 -15 -10 -19 32
-5 53 8 10 11 26 8 35 -7 18 -4 19 20 10 9 -3 16 -16 16 -28 0 -16 2 -18 9 -7
5 7 14 10 20 7 6 -4 11 -2 11 3 0 6 -7 11 -15 11 -9 0 -18 7 -21 15 -4 8 -10
13 -14 10 -5 -3 -11 -1 -15 5 -4 6 -15 4 -31 -6 -16 -11 -24 -12 -24 -5 0 7
-5 9 -12 5 -7 -4 -8 -3 -4 5 4 6 12 9 17 6 5 -4 9 -1 9 5 0 6 6 8 13 5 6 -4 4
0 -6 8 -13 11 -15 16 -5 19 11 4 10 8 -1 21 -9 11 -10 17 -2 17 6 0 11 -4 11
-10 0 -6 9 -6 25 0 22 8 27 7 35 -15 11 -30 24 -34 15 -4 -6 17 -3 20 17 18
29 -3 60 10 52 22 -3 5 3 6 12 2 10 -3 15 -2 12 3 -4 5 5 10 18 10 32 2 30 -4
-3 -18 -22 -9 -24 -12 -10 -15 10 -3 14 -9 10 -16 -4 -7 1 -6 10 2 14 11 17
11 17 0 0 -8 5 -6 13 5 12 16 16 17 35 5 12 -8 20 -19 18 -26 -3 -7 -1 -15 3
-18 5 -3 12 2 15 11 10 26 7 34 -15 34 -11 0 -17 5 -14 10 3 6 0 10 -7 11 -7
1 -2 5 12 9 17 5 19 8 8 9 -19 1 -21 14 -9 45 6 17 8 17 14 3 3 -8 1 -17 -6
-20 -6 -2 -4 -6 5 -10 13 -4 16 -1 12 19 -2 13 0 24 5 24 5 0 17 7 25 16 9 8
16 10 16 4 0 -6 -6 -13 -14 -16 -8 -3 -14 -19 -14 -37 -1 -18 -2 -41 -4 -51
-2 -10 3 -21 10 -23 8 -3 10 1 5 14 -6 16 -5 17 13 3 18 -14 18 -14 5 3 -9 12
-10 21 -3 30 10 12 12 18 12 37 0 6 8 10 18 10 17 1 62 32 62 44 0 4 -11 11
-24 16 -16 6 -25 19 -28 38 -3 23 -1 29 11 24 8 -3 12 -1 8 5 -4 6 0 14 9 17
8 3 12 10 9 16 -4 6 -12 4 -22 -6 -11 -11 -19 -12 -26 -5 -19 19 -28 12 -21
-15 5 -19 4 -25 -5 -20 -6 4 -14 0 -17 -8 -3 -9 -9 -14 -14 -11 -4 2 -16 -2
-26 -10 -13 -10 -15 -14 -5 -15 10 0 11 -3 2 -13 -6 -8 -8 -16 -6 -19 3 -3 -3
-8 -15 -11 -24 -6 -25 -3 -3 18 16 16 16 18 0 27 -25 13 -21 33 11 46 l27 12
-27 -4 c-15 -2 -27 0 -26 3 2 21 -4 31 -14 25 -8 -5 -9 -2 -5 9 7 20 -2 49
-13 42 -4 -3 -10 5 -13 17 -4 12 -1 25 5 29 6 4 8 17 5 29 -4 17 -3 19 9 9 11
-9 14 -9 14 0 0 8 8 10 20 6 11 -4 20 -2 20 4 0 6 5 11 12 11 9 0 9 -3 0 -12
-7 -7 -8 -17 -1 -30 7 -13 6 -18 -3 -18 -17 -1 33 -39 50 -40 7 0 17 -11 22
-25 6 -17 14 -23 26 -18 8 3 12 9 7 12 -5 3 -16 22 -26 41 -9 19 -17 29 -17
23 0 -7 -5 -13 -11 -13 -6 0 -9 7 -5 15 3 8 -2 18 -10 23 -14 8 -14 10 1 25 9
9 34 22 55 28 22 7 37 15 35 19 -3 4 2 13 10 20 13 11 14 10 9 -4 -5 -12 0
-16 20 -16 26 0 35 13 16 25 -5 3 -6 13 -3 22 4 10 2 14 -4 10 -6 -4 -13 0
-17 8 -3 8 3 19 12 24 9 6 12 11 5 11 -16 0 -10 30 10 45 9 7 13 16 9 20 -4 4
5 5 20 1 15 -3 30 -2 33 4 3 5 0 7 -8 4 -8 -3 -17 2 -21 12 -4 11 -2 15 8 11
8 -3 17 -1 20 6 5 9 7 9 12 0 4 -9 13 -9 31 -2 18 6 30 6 39 -2 10 -8 14 -8
14 -1 0 6 -8 15 -17 21 -31 17 -6 23 26 6 32 -16 34 -15 31 24 -1 16 2 21 11
16 8 -5 10 -4 5 4 -4 7 -15 11 -24 9 -20 -3 -42 9 -42 23 0 6 4 8 9 5 5 -4 12
0 14 6 4 9 8 9 14 3 4 -5 16 -11 27 -13 15 -3 18 1 13 17 -4 16 0 21 13 21 10
0 21 -6 23 -12 4 -9 6 -8 6 2 1 9 -4 21 -10 27 -14 14 -2 36 17 29 18 -7 27 9
19 34 -8 25 -21 26 -29 3 -3 -10 -13 -29 -20 -42 -13 -22 -14 -22 -26 -5 -9
15 -10 15 -6 2 7 -23 -19 -41 -51 -35 -15 3 -38 1 -52 -4 l-26 -9 23 20 23 19
-25 7 c-14 3 -30 3 -35 -1 -19 -11 -12 5 13 32 14 15 23 30 20 35 -3 4 9 8 25
8 23 0 31 5 32 18 0 14 2 14 9 -3 7 -17 9 -16 9 11 1 35 -22 74 -33 56 -10
-17 -26 -15 -20 3 7 17 90 13 108 -5 16 -16 30 -12 16 5 -9 10 -9 15 -1 15 6
0 10 3 8 8 -1 4 2 7 8 7 5 0 11 -13 13 -30 5 -39 8 -41 27 -21 15 15 15 17 -1
23 -15 5 -14 8 6 15 16 6 26 5 31 -3 4 -6 12 -8 18 -5 8 5 7 12 -4 22 -8 9
-19 12 -25 9 -5 -3 -10 -1 -10 4 0 6 -11 11 -25 11 -20 0 -25 5 -25 25 0 22 4
25 28 23 45 -3 54 8 32 44 -19 31 -18 54 2 42 6 -4 8 1 3 15 -7 25 9 51 32 51
11 0 14 -7 10 -26 -4 -20 -1 -24 12 -18 9 3 26 9 39 12 13 2 21 9 19 16 -4 12
41 39 53 31 5 -3 19 0 32 5 22 10 22 10 -4 7 -16 -3 -28 -1 -28 3 0 14 -82 17
-87 3 -5 -13 -70 -15 -78 -3 -3 4 5 10 17 14 18 4 20 8 10 18 -16 16 -15 28 4
28 8 0 12 -4 9 -10 -7 -11 14 -13 68 -4 20 4 37 11 37 16 0 5 -5 6 -11 2 -7
-4 -10 -1 -7 7 5 16 39 19 51 4 4 -6 7 -1 5 10 -2 13 5 23 20 30 12 5 22 13
22 17 0 5 8 8 18 8 18 1 52 22 52 34 0 3 -12 6 -27 6 -30 0 -87 -32 -77 -43 4
-4 -4 -15 -17 -26 -31 -25 -34 -20 -14 19 10 20 13 35 7 39 -14 9 5 51 23 51
9 0 14 4 11 8 -3 5 -29 7 -58 5 -29 -3 -69 -5 -88 -6 -19 -1 -38 -6 -42 -12
-5 -6 -8 -5 -8 4 0 7 -6 11 -15 7 -8 -3 -15 -1 -15 5 0 6 -9 8 -20 4 -11 -3
-39 -8 -62 -10 -22 -2 -45 -10 -49 -16 -6 -10 -11 -10 -23 0 -16 14 -19 7 -19
-51 0 -10 -4 -18 -8 -18 -5 0 -9 -7 -9 -16 0 -14 3 -14 15 -4 12 10 15 9 15
-5 0 -9 -9 -19 -21 -22 -11 -3 -18 -11 -15 -19 3 -9 0 -11 -11 -7 -10 4 -14 2
-9 -5 3 -6 0 -14 -7 -19 -16 -9 -29 -53 -16 -53 5 0 9 -8 9 -17 0 -15 2 -16
10 -3 6 10 10 11 10 3 0 -7 8 -13 18 -12 10 0 12 3 5 6 -18 7 -16 23 3 23 24
0 13 -40 -16 -59 -14 -9 -21 -11 -16 -3 4 6 2 12 -3 12 -6 0 -11 -7 -11 -15 0
-8 -9 -15 -20 -15 -14 0 -18 5 -14 18 5 14 4 14 -4 2 -8 -10 -8 -18 -1 -27 8
-9 2 -16 -23 -27 -18 -8 -26 -15 -18 -16 10 -1 9 -4 -5 -9 -12 -5 -26 -4 -34
3 -12 9 -13 8 -8 -8 5 -13 3 -17 -7 -13 -17 7 -40 -18 -31 -33 3 -5 1 -10 -6
-10 -7 0 -9 -10 -6 -27 5 -26 4 -26 -9 -8 -8 10 -14 22 -14 25 0 3 -17 6 -37
5 -34 0 -38 -3 -40 -28 -2 -24 0 -27 12 -17 8 6 19 9 24 5 17 -10 -7 -30 -37
-32 -15 0 -28 -6 -30 -12 -2 -7 -14 -1 -27 14 -27 28 -45 32 -45 10 0 -8 6
-15 13 -15 8 0 13 -8 12 -19 -2 -30 -34 -71 -55 -71 -24 0 -25 -6 -5 -26 13
-14 15 -14 15 0 0 21 16 21 24 0 8 -20 -2 -36 -16 -28 -7 5 -9 1 -5 -9 4 -12
2 -14 -10 -10 -12 5 -14 3 -8 -8 7 -11 6 -12 -6 -3 -23 17 -69 2 -69 -23 0
-10 -6 -12 -20 -8 -24 7 -26 -7 -5 -29 18 -18 20 -33 2 -18 -13 11 -47 -6 -47
-24 0 -5 -9 -15 -20 -22 -11 -7 -20 -19 -20 -28 0 -9 5 -12 12 -8 7 4 8 3 4
-5 -4 -6 -11 -9 -16 -6 -4 3 -16 2 -25 -1 -13 -5 -11 -9 12 -21 22 -12 29 -12
38 -1 6 7 22 19 35 27 l25 14 -22 -25 c-27 -28 -30 -43 -7 -34 10 4 14 2 11
-6 -2 -7 -11 -11 -18 -9 -36 9 -83 11 -71 3 10 -7 10 -11 -2 -21 -8 -7 -21
-14 -28 -15 -44 -9 -98 -37 -92 -48 3 -4 11 -5 17 -1 27 17 44 13 42 -10 -4
-33 -4 -34 -20 -13 -15 19 -15 19 -16 -2 -1 -12 -2 -28 -3 -34 -1 -7 -5 -16
-11 -20 -6 -5 -3 -8 7 -8 9 0 19 -4 22 -8 6 -10 -30 -9 -40 1 -4 4 -14 7 -22
7 -12 0 -12 -3 -2 -15 17 -20 1 -19 -22 2 -18 16 -18 16 -12 0 3 -9 2 -17 -3
-17 -5 0 -20 -10 -33 -22 -18 -17 -22 -18 -17 -5 5 13 1 17 -17 17 -14 0 -27
6 -29 13 -4 7 -8 3 -12 -10 -4 -13 -11 -21 -15 -18 -5 3 -11 1 -15 -5 -3 -5
-3 -10 2 -10 4 0 8 -15 9 -34 0 -24 -3 -33 -13 -29 -7 3 -13 -1 -13 -8 0 -11
-2 -11 -9 -1 -6 10 -11 9 -22 -4 -9 -12 -10 -15 -1 -10 8 5 12 1 12 -11 0 -16
-1 -16 -17 -1 -15 16 -17 16 -29 0 -10 -14 -15 -15 -25 -4 -18 17 -29 15 -30
-5 0 -11 -3 -13 -6 -6 -3 9 -10 10 -24 3 -13 -7 -19 -7 -19 0 0 5 5 10 10 10
6 0 10 8 10 18 0 14 -2 15 -10 2 -5 -8 -10 -11 -10 -5 0 5 -7 -1 -16 -13 -8
-12 -21 -22 -28 -22 -8 0 -12 -9 -9 -24 4 -18 0 -25 -17 -29 -19 -5 -21 -2
-17 19 3 16 0 24 -9 24 -8 0 -14 6 -14 14 0 8 -7 17 -16 20 -14 5 -15 4 -4 -9
15 -18 10 -19 -22 -2 -14 7 -23 18 -20 25 2 6 -1 12 -8 12 -6 0 -8 5 -4 12 5
7 11 5 21 -7 8 -12 13 -14 13 -6 0 11 3 11 15 1 12 -10 18 -10 32 1 15 12 16
12 10 -3 -3 -10 -2 -18 3 -18 6 0 10 5 10 11 0 7 7 17 15 23 12 9 4 12 -37 14
-29 1 -60 3 -69 4 -22 3 -13 26 9 24 9 0 17 4 17 9 2 26 18 55 27 49 6 -4 8 1
3 16 -6 19 -4 21 14 15 16 -5 20 -3 15 9 -3 9 -1 16 5 16 11 0 15 -13 12 -37
-1 -6 3 -14 9 -18 13 -8 13 18 -1 49 -9 20 -9 29 1 41 7 8 16 12 21 9 5 -3 9
2 9 10 0 8 8 17 18 19 15 4 15 5 0 6 -9 0 -20 -3 -23 -9 -3 -5 -11 -10 -17
-10 -7 0 -6 6 2 15 7 8 18 15 25 15 8 0 16 6 19 13 3 9 9 7 19 -6 13 -16 15
-16 21 -2 3 9 2 13 -4 10 -19 -11 -10 6 13 28 26 24 25 47 -1 47 -12 0 -8 6
11 18 17 10 27 26 28 42 1 17 3 19 6 8 2 -10 8 -18 13 -18 5 0 11 8 13 18 3 9
5 6 4 -8 -1 -14 2 -27 7 -30 14 -7 15 43 2 59 -8 11 -8 13 2 7 7 -4 12 -1 12
9 0 9 5 13 11 9 7 -4 9 0 5 14 -8 24 22 46 48 36 17 -7 22 -34 6 -34 -5 0 -10
-4 -10 -10 0 -21 19 -9 32 20 7 17 16 30 20 30 5 0 8 6 8 14 0 21 20 30 33 17
17 -17 27 -13 27 9 0 11 5 20 10 20 6 0 10 6 10 13 0 12 43 57 54 57 3 0 6 -7
8 -15 2 -12 6 -11 16 5 12 19 11 22 -7 27 -27 7 -27 19 -1 19 11 0 20 -4 20
-8 0 -4 5 -8 10 -8 6 0 10 7 10 15 0 9 7 18 15 21 8 4 15 12 15 19 0 6 9 20
20 30 11 10 18 20 15 23 -2 3 0 12 5 22 6 12 17 16 35 13 19 -4 25 -1 25 12 0
15 -2 15 -16 4 -13 -10 -17 -10 -24 1 -5 8 -5 19 -1 25 5 5 12 24 16 40 7 27
8 28 15 10 9 -21 9 -21 15 8 5 28 25 47 49 47 17 0 18 2 6 10 -13 9 -13 10 0
10 11 0 12 2 3 8 -10 6 -7 15 10 38 41 54 60 73 70 67 5 -3 4 -9 -2 -13 -9 -5
-8 -10 4 -20 13 -11 15 -9 12 11 -2 13 3 30 11 38 13 13 12 16 -7 25 -23 10
-27 21 -11 31 6 3 10 1 10 -6 0 -7 3 -9 7 -6 3 4 13 1 22 -5 13 -10 14 -10 4
2 -18 19 -17 74 0 67 23 -9 44 17 45 56 1 21 5 43 9 50 4 7 6 20 5 30 -2 10 2
25 8 33 7 7 10 23 7 35 -7 24 1 49 15 49 5 0 6 -5 2 -11 -3 -6 0 -16 7 -21 11
-7 11 -11 2 -15 -18 -7 -16 -33 2 -33 8 0 15 7 15 15 0 8 6 15 13 15 9 0 8 3
-2 9 -9 6 -10 11 -2 15 6 4 11 19 11 33 0 31 14 21 16 -10 1 -12 2 -30 3 -40
0 -10 6 -15 12 -12 6 4 8 14 5 22 -4 11 -2 13 9 9 18 -7 19 -2 3 27 -10 20
-10 21 6 8 9 -8 16 -10 15 -5 -5 26 1 36 14 25 15 -12 27 -5 27 15 0 8 -7 11
-17 7 -12 -3 -8 4 10 22 32 30 45 28 27 -5 -18 -34 -5 -35 19 -2 18 25 19 31
6 36 -20 7 -19 36 3 52 30 23 45 17 40 -16 -3 -16 -3 -30 -2 -30 8 0 44 95 43
114 -1 17 -2 17 -6 4 -2 -10 -8 -18 -12 -18 -11 0 -12 48 -1 55 6 3 10 15 10
26 0 11 7 22 15 25 8 4 13 10 10 14 -3 5 0 12 6 16 9 5 10 -1 5 -20 -3 -14 -2
-26 3 -26 5 0 9 -6 8 -12 0 -7 1 -26 1 -42 2 -24 4 -27 17 -16 8 7 15 23 15
37 0 41 27 94 44 87 12 -4 16 0 16 16 0 11 -4 19 -9 15 -5 -3 -13 0 -16 6 -4
6 2 13 14 16 12 3 21 9 21 14 0 5 3 9 8 9 4 0 6 -19 4 -42z m-382 -2 c0 -3 -4
-8 -10 -11 -5 -3 -10 -1 -10 4 0 6 5 11 10 11 6 0 10 -2 10 -4z m-34 -78 c-1
-18 -6 -40 -11 -48 -5 -8 -10 -19 -11 -25 -4 -34 -7 -37 -13 -10 -6 24 -3 34
13 47 12 10 15 18 9 18 -16 0 -17 22 -1 38 16 16 15 17 14 -20z m1394 28 c0
-2 -8 -10 -17 -17 -16 -13 -17 -12 -4 4 13 16 21 21 21 13z m25 -16 c-3 -5
-11 -10 -16 -10 -6 0 -7 5 -4 10 3 6 11 10 16 10 6 0 7 -4 4 -10z m-3425 -85
c0 -8 -4 -15 -10 -15 -5 0 -7 7 -4 15 4 8 8 15 10 15 2 0 4 -7 4 -15z m3890
11 c0 -3 -4 -8 -10 -11 -5 -3 -10 -1 -10 4 0 6 5 11 10 11 6 0 10 -2 10 -4z
m-3820 -35 c0 -4 -9 -7 -20 -8 -11 -1 -20 4 -20 12 0 8 7 11 20 8 11 -3 20 -8
20 -12z m65 -21 c4 -6 10 -8 15 -5 4 3 10 -4 13 -16 4 -16 2 -19 -16 -14 -19
5 -20 5 -4 -5 9 -6 17 -17 17 -24 0 -24 -25 -65 -47 -77 -23 -13 -39 -39 -23
-39 6 0 10 -9 10 -20 0 -11 -6 -20 -13 -20 -9 0 -12 -10 -9 -30 4 -29 -11 -42
-21 -17 -3 6 -6 -4 -6 -25 -1 -20 -7 -39 -13 -41 -10 -4 -10 -7 0 -15 7 -5 10
-16 6 -26 -6 -15 -7 -15 -19 0 -11 16 -12 16 -18 0 -4 -11 -12 -14 -19 -10 -7
5 -3 -5 10 -20 12 -16 20 -32 17 -36 -3 -4 3 -14 13 -21 15 -13 16 -12 3 4 -8
10 -9 17 -3 17 6 0 13 -9 17 -19 7 -24 36 -36 47 -19 6 10 8 10 9 -2 1 -8 3
-19 3 -25 1 -5 5 -15 9 -22 4 -6 3 -14 -3 -18 -6 -4 -8 -10 -5 -15 3 -5 0 -12
-6 -16 -7 -4 -9 -3 -6 3 9 15 -14 32 -40 30 -13 -1 -19 -6 -16 -15 5 -10 8
-11 13 -1 6 8 9 6 12 -7 7 -34 -3 -56 -23 -51 -22 6 -26 -11 -5 -19 8 -3 13
-15 11 -26 -3 -12 2 -26 11 -32 10 -8 13 -20 8 -43 -5 -25 -13 -33 -35 -38
-43 -10 -33 -32 12 -27 8 1 6 -82 -2 -88 -4 -3 -3 -25 1 -50 5 -25 9 -56 9
-70 l-1 -25 -7 24 c-12 45 -29 36 -20 -11 11 -57 11 -60 -1 -53 -5 3 -10 1
-10 -5 0 -8 -6 -8 -21 0 -27 15 -49 6 -49 -20 0 -12 -7 -20 -16 -20 -14 0 -14
3 -4 15 8 10 9 19 3 28 -12 14 -13 47 -2 47 4 0 9 -6 12 -14 6 -15 31 -16 44
-1 4 4 -2 6 -14 3 -22 -6 -39 14 -27 33 8 13 -10 11 -25 -3 -10 -11 -11 -7 -5
16 4 19 2 31 -6 36 -7 4 -13 23 -14 42 -1 19 -6 32 -12 31 -7 -1 -10 6 -7 17
3 10 11 16 18 14 7 -3 16 0 20 5 3 6 10 9 15 6 5 -3 14 4 20 16 9 15 19 20 36
16 28 -5 29 -4 7 18 -15 15 -18 15 -40 -11 -22 -26 -23 -26 -23 -5 0 12 -4 19
-10 16 -6 -4 -8 -10 -6 -14 3 -4 1 -13 -4 -21 -7 -12 -12 -12 -22 -2 -9 9 -9
15 0 24 7 7 12 21 12 33 -1 18 -1 19 -11 2 -6 -9 -14 -15 -18 -12 -11 6 -33
-20 -30 -37 4 -34 0 -39 -23 -26 -23 12 -43 18 -65 20 -18 2 -16 33 1 48 15
12 11 40 -6 40 -5 0 -7 -4 -4 -9 3 -5 -1 -11 -9 -15 -24 -9 -18 22 8 35 12 7
26 17 30 23 5 6 6 -1 3 -17 -4 -15 -2 -36 4 -47 9 -17 8 -20 -10 -20 -12 0
-19 -4 -15 -9 3 -6 15 -9 26 -8 15 1 19 6 15 23 -7 26 21 43 31 19 4 -12 8
-13 20 -3 11 9 17 9 24 -3 8 -10 8 -7 4 11 -9 31 -28 53 -23 26 1 -10 -3 -21
-11 -24 -10 -3 -11 2 -6 19 10 32 26 48 32 32 3 -7 9 -13 14 -13 6 0 7 5 3 11
-3 6 0 15 7 20 7 4 10 11 6 16 -5 4 -11 2 -15 -4 -11 -17 -39 7 -47 40 -5 19
-3 27 7 27 7 0 19 9 26 21 12 18 11 24 -7 40 -22 20 -28 35 -12 24 6 -3 9 4 8
15 -1 11 -6 20 -12 20 -6 0 -11 9 -11 20 0 19 9 25 29 21 5 -1 6 3 3 8 -4 5
-2 12 4 16 5 3 10 -1 10 -9 0 -9 4 -16 8 -16 10 0 9 41 -1 57 -4 6 -17 10 -30
8 -56 -8 -87 -19 -87 -30 0 -21 -25 -36 -38 -23 -14 14 21 48 50 48 10 0 21 7
24 15 3 8 16 14 27 13 12 0 31 3 41 7 13 6 17 5 13 -2 -4 -6 0 -16 8 -23 25
-21 29 -3 6 29 -15 21 -18 32 -10 37 7 4 9 3 6 -3 -4 -6 1 -17 10 -24 15 -12
16 -12 11 3 -4 10 -1 19 8 22 8 3 14 13 14 22 0 12 6 15 25 10 14 -4 25 -2 25
4 0 5 -7 10 -15 10 -24 0 -17 20 11 31 26 9 26 10 9 29 -10 11 -24 20 -32 20
-10 0 -11 5 -3 19 13 25 13 42 -1 19 -5 -10 -14 -18 -19 -18 -14 0 -24 70 -12
82 8 8 7 19 -4 40 -9 17 -13 32 -10 36 3 3 6 0 6 -7 0 -7 6 -11 14 -8 10 4 15
-4 18 -28 2 -18 0 -31 -4 -29 -4 3 -8 -1 -8 -9 0 -7 7 -14 16 -14 11 0 14 7
11 24 -3 19 -2 21 10 12 7 -7 16 -9 20 -5 3 3 1 6 -7 6 -10 0 -10 3 0 15 9 11
17 12 32 4 13 -7 24 -7 30 -1 8 8 -21 22 -54 26 -3 1 -9 3 -12 7 -3 3 11 5 32
5 28 -1 41 -7 54 -26 14 -20 18 -21 18 -7 0 9 -5 17 -11 17 -13 0 10 24 31 33
23 8 28 8 35 -3z m3681 -5 c-19 -15 -46 -20 -46 -10 0 6 40 24 55 24 6 0 1 -6
-9 -14z m-3911 -45 c3 -5 1 -10 -4 -10 -6 0 -11 5 -11 10 0 6 2 10 4 10 3 0 8
-4 11 -10z m-25 -14 c0 -3 -4 -8 -10 -11 -5 -3 -10 -1 -10 4 0 6 5 11 10 11 6
0 10 -2 10 -4z m4300 -15 c0 -15 -28 -33 -40 -26 -8 5 -8 11 1 21 13 15 39 19
39 5z m-4270 -88 c0 -7 -9 -13 -20 -13 -12 0 -17 5 -14 13 3 8 11 14 19 14 8
0 15 -6 15 -14z m2685 7 c-3 -5 -11 -10 -16 -10 -6 0 -7 5 -4 10 3 6 11 10 16
10 6 0 7 -4 4 -10z m-2718 -38 c7 -7 17 -10 23 -7 5 3 9 -2 8 -12 0 -10 0 -26
0 -37 2 -15 5 -16 17 -6 11 9 15 9 15 1 0 -6 -7 -14 -15 -17 -8 -4 -15 -13
-15 -21 0 -13 -3 -13 -15 -3 -8 7 -12 16 -9 21 3 5 0 9 -7 9 -8 0 -8 4 1 16
11 12 10 18 -3 32 -16 15 -17 15 -17 -3 0 -17 -2 -17 -17 5 -12 17 -13 25 -5
28 7 2 12 11 13 20 0 14 2 14 6 2 4 -8 12 -21 20 -28z m2069 -14 c-1 -13 -6
-22 -9 -20 -4 1 -12 2 -17 2 -6 0 -5 8 2 20 17 27 29 25 24 -2z m544 2 c0 -5
-12 -10 -27 -9 -25 0 -26 1 -8 9 27 12 35 12 35 0z m-560 -76 c0 -2 -7 -4 -15
-4 -8 0 -15 4 -15 10 0 5 7 7 15 4 8 -4 15 -8 15 -10z m-2067 -21 c-3 -7 -9
-13 -13 -13 -4 0 -10 6 -13 13 -3 7 3 13 13 13 10 0 16 -6 13 -13z m2041 -4
c-8 -14 -24 -10 -24 6 0 9 6 12 15 9 8 -4 12 -10 9 -15z m-154 -44 c-7 -9 -15
-13 -17 -11 -7 7 7 26 19 26 6 0 6 -6 -2 -15z m2610 -19 c0 -8 7 -22 16 -31
14 -13 15 -21 5 -41 -9 -20 -15 -23 -38 -18 -36 9 -35 7 -37 46 -1 20 4 38 14
45 21 17 40 16 40 -1z m-3395 -26 c20 0 24 -23 6 -36 -20 -15 -41 10 -33 40 3
11 7 15 10 8 2 -6 10 -12 17 -12z m885 -4 c0 -2 -7 -9 -15 -16 -13 -11 -14
-10 -9 4 5 14 24 23 24 12z m64 -21 c-4 -8 -8 -15 -10 -15 -2 0 -4 7 -4 15 0
8 4 15 10 15 5 0 7 -7 4 -15z m-860 -86 c-3 -5 -17 -9 -31 -9 -21 0 -23 2 -13
15 7 9 10 26 5 42 -6 27 -6 27 19 -6 14 -19 23 -38 20 -42z m1355 30 c-11 -21
-29 -25 -29 -6 0 6 -9 1 -19 -12 -17 -22 -41 -22 -41 0 0 6 5 7 11 4 6 -4 16
1 24 11 7 11 24 20 39 20 22 2 24 -1 15 -17z m71 18 c0 -2 -12 -14 -27 -28
l-28 -24 24 28 c23 25 31 32 31 24z m174 -29 c8 -22 4 -32 -25 -62 -33 -36
-59 -46 -59 -25 0 6 -7 9 -15 5 -8 -3 -22 -3 -30 1 -14 5 -14 8 1 24 16 18 16
19 1 19 -10 0 -17 5 -17 11 0 6 7 8 16 5 10 -4 23 3 35 18 18 23 49 36 74 31
6 -1 14 -13 19 -27z m-2864 -2 c0 -13 6 -29 14 -35 18 -16 38 -71 25 -71 -5 0
-9 9 -9 20 0 11 -6 20 -14 20 -9 0 -13 -7 -11 -20 2 -11 0 -22 -4 -24 -4 -3
-8 0 -9 7 0 7 -3 21 -5 32 -2 11 0 23 5 26 6 4 6 9 -1 13 -6 4 -11 2 -11 -3 0
-6 -5 -11 -12 -11 -6 0 -19 -7 -28 -15 -14 -13 -16 -12 -16 5 0 19 8 24 32 21
6 -1 18 6 25 15 11 14 11 18 1 21 -6 3 -10 9 -6 14 10 17 24 9 24 -15z m2761
1 c-13 -13 -26 -3 -16 12 3 6 11 8 17 5 6 -4 6 -10 -1 -17z m-2821 -7 c0 -5
-2 -10 -4 -10 -3 0 -8 5 -11 10 -3 6 -1 10 4 10 6 0 11 -4 11 -10z m-36 -16
c3 -8 2 -12 -4 -9 -6 3 -10 10 -10 16 0 14 7 11 14 -7z m2782 -2 c6 -4 10 -26
10 -49 -1 -37 -4 -42 -20 -37 -11 4 -16 2 -12 -4 9 -15 -17 -30 -39 -22 -18 7
-19 8 -2 15 9 4 17 14 17 21 0 8 7 17 15 20 8 4 12 11 9 16 -4 6 0 14 7 19 11
7 10 9 -3 9 -11 0 -18 -7 -18 -18 0 -22 -33 -55 -60 -59 -18 -2 -17 -1 3 20
12 13 25 22 30 20 4 -2 7 3 7 13 0 13 -3 14 -15 4 -8 -6 -20 -8 -26 -4 -8 4
-9 3 -5 -4 9 -14 -13 -16 -34 -2 -11 7 -9 11 14 19 15 6 31 9 36 6 5 -3 11 -1
15 4 3 6 12 8 19 5 8 -3 17 -1 21 5 7 13 16 14 31 3z m-659 -34 c-3 -8 -6 -5
-6 6 -1 11 2 17 5 13 3 -3 4 -12 1 -19z m-2060 -13 c0 -8 -4 -15 -9 -15 -4 0
-8 7 -8 15 0 8 4 15 8 15 5 0 9 -7 9 -15z m1949 -10 c1 -14 -2 -22 -7 -19 -11
6 -12 44 -1 44 4 0 8 -11 8 -25z m94 -2 c-1 -14 -30 -47 -36 -41 -3 4 3 15 13
26 21 23 23 25 23 15z m550 -23 c0 -5 -4 -10 -10 -10 -5 0 -10 5 -10 10 0 6 5
10 10 10 6 0 10 -4 10 -10z m-26 -15 c3 -9 0 -15 -9 -15 -8 0 -15 -4 -15 -10
0 -5 -7 -10 -15 -10 -19 0 -19 9 2 32 20 22 29 23 37 3z m-2614 -67 c0 -11
-28 -10 -35 1 -3 6 4 9 15 8 11 -1 20 -5 20 -9z m1870 2 c0 -5 -2 -10 -4 -10
-3 0 -8 5 -11 10 -3 6 -1 10 4 10 6 0 11 -4 11 -10z m53 -18 c-18 -5 -27 3
-18 17 4 7 10 7 20 -2 11 -10 11 -13 -2 -15z m782 18 c-3 -5 -2 -10 3 -10 16
0 23 -32 11 -47 -9 -10 -9 -17 -1 -25 20 -20 14 -43 -12 -43 -13 0 -22 3 -19
8 2 4 12 7 21 7 10 0 5 8 -17 24 -19 14 -28 27 -22 31 6 3 16 3 21 0 6 -3 10
-4 10 -1 0 2 3 12 6 21 6 13 2 16 -19 13 -14 -1 -25 2 -24 7 1 6 7 9 14 7 7
-2 13 2 13 8 0 5 5 10 11 10 5 0 7 -4 4 -10z m90 -1 c11 -16 2 -17 -25 -2 -24
12 -24 13 -3 13 12 0 25 -5 28 -11z m-30 -19 c-3 -5 -13 -10 -21 -10 -8 0 -12
5 -9 10 3 6 13 10 21 10 8 0 12 -4 9 -10z m-915 -14 c0 -15 -30 -44 -30 -30 0
5 -4 4 -8 -2 -4 -6 -18 -14 -32 -18 -23 -6 -23 -6 -5 5 11 7 25 19 31 27 6 8
16 12 22 8 8 -5 10 -2 6 8 -3 9 -1 16 5 16 6 0 11 -6 11 -14z m-1750 -18 c0
-4 -7 -8 -15 -8 -8 0 -15 4 -15 8 0 5 7 9 15 9 8 0 15 -4 15 -9z m2641 -15
c-12 -20 -14 -14 -5 12 4 9 9 14 11 11 3 -2 0 -13 -6 -23z m-91 -39 c0 -2 -9
-4 -21 -4 -11 0 -18 4 -14 10 5 8 35 3 35 -6z m-15 -24 c3 -5 -1 -10 -9 -10
-8 0 -18 5 -21 10 -3 6 1 10 9 10 8 0 18 -4 21 -10z m1842 -6 c-3 -3 -12 -4
-19 -1 -8 3 -5 6 6 6 11 1 17 -2 13 -5z m-1862 -14 c3 -5 2 -10 -4 -10 -6 0
-8 -7 -5 -15 4 -8 2 -15 -2 -15 -5 0 -19 -3 -31 -6 -18 -5 -23 -2 -22 12 0 11
3 14 6 7 8 -20 23 -15 23 8 0 13 -4 18 -12 13 -7 -4 -8 -3 -4 4 9 15 43 16 51
2z m95 -15 c0 -15 -6 -25 -15 -25 -7 0 -19 -8 -24 -17 -6 -10 -11 -13 -11 -7
0 6 9 21 20 34 11 13 20 27 20 32 0 4 2 8 5 8 3 0 5 -11 5 -25z m-2785 -3 c-3
-3 -11 0 -18 7 -9 10 -8 11 6 5 10 -3 15 -9 12 -12z m1732 12 c-3 -3 -12 -4
-19 -1 -8 3 -5 6 6 6 11 1 17 -2 13 -5z m833 -14 c0 -5 -2 -10 -4 -10 -3 0 -8
5 -11 10 -3 6 -1 10 4 10 6 0 11 -4 11 -10z m-2430 -14 c0 -3 -4 -8 -10 -11
-5 -3 -10 -1 -10 4 0 6 5 11 10 11 6 0 10 -2 10 -4z m53 -36 c3 -14 1 -20 -6
-17 -7 2 -14 14 -15 26 -4 28 13 20 21 -9z m-33 10 c0 -5 -2 -10 -4 -10 -3 0
-8 5 -11 10 -3 6 -1 10 4 10 6 0 11 -4 11 -10z m1580 0 c0 -5 -5 -10 -11 -10
-5 0 -7 5 -4 10 3 6 8 10 11 10 2 0 4 -4 4 -10z m870 0 c0 -5 -5 -10 -11 -10
-5 0 -7 5 -4 10 3 6 8 10 11 10 2 0 4 -4 4 -10z m90 6 c0 -3 -4 -8 -10 -11 -5
-3 -10 -1 -10 4 0 6 5 11 10 11 6 0 10 -2 10 -4z m-2573 -36 c-1 -12 -5 -16
-10 -11 -5 5 -6 14 -3 20 11 16 15 13 13 -9z m1313 0 c-28 -22 -48 -27 -28 -7
12 12 35 24 48 26 3 0 -6 -8 -20 -19z m1078 4 c14 -15 14 -16 -3 -13 -10 2
-20 10 -23 17 -5 17 6 15 26 -4z m-2553 -24 c3 -5 1 -10 -4 -10 -6 0 -11 5
-11 10 0 6 2 10 4 10 3 0 8 -4 11 -10z m215 6 c0 -2 -7 -7 -16 -10 -8 -3 -12
-2 -9 4 6 10 25 14 25 6z m1253 -30 c5 -12 -2 -14 -31 -7 -2 1 0 6 3 11 9 14
22 12 28 -4z m102 4 c3 -5 1 -10 -4 -10 -6 0 -11 5 -11 10 0 6 2 10 4 10 3 0
8 -4 11 -10z m-1555 -10 c0 -5 -5 -10 -11 -10 -5 0 -7 5 -4 10 3 6 8 10 11 10
2 0 4 -4 4 -10z m205 -1 c19 -9 18 -9 -2 -5 -21 4 -28 -4 -24 -27 1 -5 -3 -6
-8 -3 -10 6 -3 46 8 45 3 0 15 -5 26 -10z m75 -20 c0 -4 -6 -9 -13 -12 -12 -4
-14 10 -8 43 2 6 21 -23 21 -31z m2116 16 c17 -16 14 -18 -10 -9 -9 3 -16 10
-16 15 0 13 9 11 26 -6z m-2421 -35 c3 -5 1 -10 -4 -10 -6 0 -11 5 -11 10 0 6
2 10 4 10 3 0 8 -4 11 -10z m2349 -16 c5 -14 4 -15 -9 -4 -17 14 -19 20 -6 20
5 0 12 -7 15 -16z m166 -13 c3 -2 -3 -1 -14 3 -10 3 -25 1 -32 -5 -17 -14 -19
2 -2 19 11 11 20 8 48 -17z m-200 -1 c0 -13 -5 -18 -15 -14 -12 5 -13 10 -4
20 15 19 19 18 19 -6z m30 -28 c0 -15 -2 -15 -10 -2 -13 20 -13 33 0 25 6 -3
10 -14 10 -23z m80 3 c0 -8 -2 -15 -4 -15 -2 0 -6 7 -10 15 -3 8 -1 15 4 15 6
0 10 -7 10 -15z m-648 -53 c-8 -12 -17 -20 -20 -17 -9 9 -12 38 -6 58 6 18 6
18 23 0 16 -16 16 -20 3 -41z m735 52 c-3 -3 -12 -4 -19 -1 -8 3 -5 6 6 6 11
1 17 -2 13 -5z m-2389 -39 c-3 -3 -9 2 -12 12 -6 14 -5 15 5 6 7 -7 10 -15 7
-18z m254 -7 c-7 -7 -12 -8 -12 -2 0 6 3 14 7 17 3 4 9 5 12 2 2 -3 -1 -11 -7
-17z m76 -1 c7 -8 7 -18 2 -27 -9 -13 -10 -13 -11 0 0 10 -3 8 -9 -5 -7 -16
-9 -16 -9 -4 -1 9 -8 19 -16 23 -8 3 -15 10 -15 16 0 14 46 12 58 -3z m-88
-32 c0 -8 -7 -15 -15 -15 -16 0 -20 12 -8 23 11 12 23 8 23 -8z m25 -5 c-3 -5
-1 -10 4 -10 6 0 11 -4 11 -10 0 -5 -7 -7 -15 -4 -10 4 -15 0 -16 -12 0 -13
-2 -14 -6 -5 -4 10 -7 10 -13 1 -6 -9 -13 -9 -31 1 -13 7 -27 12 -31 11 -5 -1
-8 3 -8 8 0 13 33 13 47 -1 8 -8 16 -5 30 9 19 21 39 29 28 12z m2232 -15 c0
-8 -4 -15 -9 -15 -10 0 -11 14 -1 23 9 10 10 9 10 -8z m1566 -24 c-3 -11 -14
-28 -26 -38 -11 -10 -17 -13 -14 -6 4 6 2 15 -4 18 -7 5 -4 13 8 25 24 25 42
25 36 1z m-1646 -37 c-2 -14 -10 -29 -17 -34 -8 -5 -11 -12 -8 -15 8 -8 43 31
43 47 0 6 6 13 13 16 7 2 10 -2 6 -11 -4 -11 2 -17 18 -20 17 -3 15 -5 -10 -6
-21 0 -31 -5 -27 -12 10 -15 13 -59 5 -54 -4 3 -10 -5 -13 -16 -3 -11 -15 -23
-26 -26 -12 -3 -21 -10 -21 -15 0 -6 7 -8 15 -4 19 7 19 1 -1 -30 -10 -14 -23
-23 -30 -20 -9 3 -14 -2 -14 -14 0 -11 -4 -20 -9 -20 -9 0 -41 44 -41 57 0 4
5 0 11 -9 9 -17 12 -17 42 -1 26 14 29 18 13 21 -10 2 -22 -1 -26 -7 -5 -9
-10 -7 -20 4 -8 10 -9 15 -1 15 6 0 11 7 11 15 0 9 6 12 15 9 9 -4 15 0 15 10
0 10 7 15 21 13 12 -1 24 4 27 12 3 10 -1 12 -16 9 -12 -4 -23 0 -26 8 -3 9 0
11 11 7 13 -5 15 -2 10 11 -6 16 18 86 29 86 3 0 3 -12 1 -26z m-2182 -12 c8
-21 3 -22 -17 -2 -14 13 -15 17 -3 17 8 0 17 -7 20 -15z m2135 -4 c0 -6 -6 -5
-15 2 -8 7 -15 14 -15 16 0 2 7 1 15 -2 8 -4 15 -11 15 -16z m-2450 -22 c0 -3
-4 -8 -10 -11 -5 -3 -10 -1 -10 4 0 6 5 11 10 11 6 0 10 -2 10 -4z m363 -48
c-2 -24 -6 -49 -8 -55 -5 -15 -45 -18 -45 -3 0 5 7 7 16 3 12 -4 14 0 8 21 -4
18 -2 26 7 26 8 1 1 8 -15 16 -21 12 -25 19 -17 27 9 9 14 8 21 -3 8 -12 10
-12 16 3 11 30 22 9 17 -35z m1920 32 c-3 -11 -9 -17 -14 -14 -5 3 -7 9 -4 14
3 4 -1 11 -7 13 -7 3 -3 6 9 6 16 1 20 -3 16 -19z m-83 -1 c0 -6 -15 -25 -32
-42 l-33 -30 30 7 c17 4 32 12 33 17 2 5 8 7 13 3 5 -3 17 3 27 12 16 17 17
17 21 -1 2 -10 13 -27 25 -37 15 -14 17 -21 9 -24 -21 -9 -15 -19 11 -19 18 0
22 3 14 13 -8 8 -7 12 3 13 10 0 11 2 2 6 -21 8 -15 22 7 16 11 -3 18 -9 15
-13 -3 -5 0 -10 5 -12 7 -2 1 -23 -14 -50 -23 -43 -24 -49 -10 -63 14 -14 14
-16 -2 -14 -4 0 -10 -4 -13 -10 -8 -13 -22 -3 -44 31 -21 33 -21 42 -2 34 9
-3 15 0 15 8 0 22 -13 26 -27 8 -12 -15 -14 -16 -25 -1 -7 9 -19 14 -27 11 -8
-3 -12 1 -8 9 2 8 9 13 15 12 5 -1 8 7 5 18 -5 19 -7 19 -15 5 -5 -9 -16 -16
-23 -16 -8 0 -15 -4 -15 -10 0 -5 6 -10 13 -10 8 0 7 -4 -3 -11 -13 -9 -12
-10 2 -5 10 3 20 1 23 -5 4 -5 11 -7 16 -4 5 4 9 -1 9 -9 0 -21 -17 -29 -24
-11 -4 12 -10 13 -25 6 -14 -8 -21 -7 -24 2 -4 9 -8 8 -16 -3 -9 -13 -11 -13
-11 1 0 21 -30 33 -44 19 -12 -12 -27 -13 -25 -2 4 21 -3 32 -17 32 -13 0 -14
-3 -5 -13 8 -11 6 -18 -9 -32 -11 -10 -20 -13 -20 -7 0 7 5 12 10 12 6 0 10 5
10 11 0 5 -4 8 -9 5 -5 -3 -8 5 -7 18 1 20 5 22 26 16 21 -6 31 -1 62 34 21
22 38 45 38 50 0 5 6 3 14 -3 12 -10 17 -8 25 7 6 11 7 22 4 26 -3 3 1 6 10 6
10 0 17 -5 17 -11z m146 -32 c8 -8 -5 -27 -17 -27 -6 0 -7 4 -4 10 4 6 -6 7
-27 3 -29 -6 -32 -5 -20 9 12 15 55 18 68 5z m74 -12 c-7 -9 -15 -13 -17 -11
-7 7 7 26 19 26 6 0 6 -6 -2 -15z m-2186 -11 c5 -14 4 -15 -9 -4 -17 14 -19
20 -6 20 5 0 12 -7 15 -16z m159 -66 c-10 -3 -14 -7 -9 -7 5 -1 3 -8 -5 -17
-11 -14 -13 -14 -21 0 -6 11 -3 24 9 40 16 23 19 24 31 8 10 -14 10 -18 -5
-24z m1067 28 c0 -3 -4 -8 -10 -11 -5 -3 -10 -1 -10 4 0 6 5 11 10 11 6 0 10
-2 10 -4z m2497 -52 c-3 -3 -12 -4 -19 -1 -8 3 -5 6 6 6 11 1 17 -2 13 -5z
m-1867 -44 c0 -5 -5 -10 -11 -10 -5 0 -7 5 -4 10 3 6 8 10 11 10 2 0 4 -4 4
-10z m340 -9 c0 -11 -31 -24 -39 -16 -3 3 1 10 9 15 19 12 30 12 30 1z m-183
-94 c-2 -7 3 -18 10 -26 8 -7 11 -16 8 -19 -3 -4 -10 0 -15 8 -8 13 -10 12
-10 -3 0 -10 -4 -16 -8 -13 -4 3 -6 21 -4 40 2 20 8 33 14 30 5 -3 7 -11 5
-17z m-513 -5 c2 -4 -4 -13 -15 -20 -21 -13 -22 -12 -13 12 7 17 20 21 28 8z
m553 -68 c-3 -3 -12 -4 -19 -1 -8 3 -5 6 6 6 11 1 17 -2 13 -5z m-1870 -40 c2
-13 1 -15 -4 -4 -3 8 -11 19 -17 23 -7 6 -6 7 4 4 8 -2 16 -12 17 -23z m1861
-11 c-8 -10 -15 -10 -32 -1 l-21 13 23 3 c12 2 22 9 22 15 0 7 4 6 10 -3 5 -9
5 -19 -2 -27z m-57 -1 c11 -29 5 -28 -16 4 -11 17 -12 25 -4 22 6 -2 16 -14
20 -26z m-84 2 c-3 -3 -12 -4 -19 -1 -8 3 -5 6 6 6 11 1 17 -2 13 -5z m-60
-39 c0 -8 -4 -12 -9 -9 -4 3 -8 9 -8 15 0 5 4 9 8 9 5 0 9 -7 9 -15z m-690
-12 c3 -7 -3 -9 -16 -6 -13 3 -21 1 -21 -8 0 -7 -2 -10 -5 -7 -3 3 -3 13 1 22
7 19 35 18 41 -1z m883 -50 c0 -21 -21 -25 -41 -7 -23 20 -26 46 -4 38 11 -5
14 -1 9 12 -4 14 0 12 15 -6 11 -14 21 -30 21 -37z m40 32 c-7 -8 -17 -15 -23
-15 -6 0 -2 7 9 15 25 19 30 19 14 0z m130 0 c0 -8 -2 -15 -4 -15 -2 0 -6 7
-10 15 -3 8 -1 15 4 15 6 0 10 -7 10 -15z m-240 -11 c0 -8 -4 -12 -10 -9 -5 3
-10 10 -10 16 0 5 5 9 10 9 6 0 10 -7 10 -16z m-73 -16 c-3 -8 -6 -5 -6 6 -1
11 2 17 5 13 3 -3 4 -12 1 -19z m353 12 c0 -5 -8 -10 -17 -10 -15 0 -16 2 -3
10 19 12 20 12 20 0z m-300 -20 c0 -5 -4 -10 -10 -10 -5 0 -10 5 -10 10 0 6 5
10 10 10 6 0 10 -4 10 -10z m72 -40 c28 0 19 -8 -21 -20 -28 -8 -31 -7 -21 5
16 20 -4 20 -23 0 -13 -12 -15 -12 -20 5 -3 11 1 21 10 24 8 3 11 1 8 -4 -9
-15 12 -12 27 4 11 12 13 12 16 0 2 -8 13 -14 24 -14z m48 20 c0 -5 -5 -10
-11 -10 -5 0 -7 5 -4 10 3 6 8 10 11 10 2 0 4 -4 4 -10z m-117 -63 c7 3 8 2 4
-3 -12 -12 -30 -12 -39 1 -14 19 -8 27 8 11 8 -9 21 -13 27 -9z m-278 -67 c3
-5 1 -10 -4 -10 -6 0 -11 5 -11 10 0 6 2 10 4 10 3 0 8 -4 11 -10z m1372 -65
c-4 -8 -12 -15 -19 -15 -9 0 -8 3 2 10 8 5 11 10 7 10 -5 0 -5 5 -2 11 10 15
19 3 12 -16z m-1237 0 c9 5 11 4 6 -3 -4 -7 -2 -12 5 -12 7 0 10 -2 7 -5 -9
-9 -58 17 -51 28 3 5 9 4 13 -3 4 -7 13 -9 20 -5z m60 1 c0 -2 -7 -6 -15 -10
-8 -3 -15 -1 -15 4 0 6 7 10 15 10 8 0 15 -2 15 -4z m-126 -38 c-3 -4 -11 -5
-19 -1 -21 7 -19 12 4 10 11 0 18 -5 15 -9z m-144 -12 c0 -3 -4 -8 -10 -11 -5
-3 -10 -1 -10 4 0 6 5 11 10 11 6 0 10 -2 10 -4z m130 -37 c0 -5 -4 -9 -10 -9
-5 0 -10 5 -10 10 0 6 -6 10 -14 10 -8 0 -17 4 -21 10 -3 5 7 5 25 -1 16 -6
30 -15 30 -20z m130 -24 c10 -13 9 -19 -5 -35 -17 -19 -19 -19 -37 -4 -15 14
-18 14 -18 3 0 -18 -37 -22 -46 -6 -4 7 -4 9 1 5 8 -8 45 28 45 44 0 14 47 9
60 -7z m-290 1 c0 -3 -4 -8 -10 -11 -5 -3 -10 -1 -10 4 0 6 5 11 10 11 6 0 10
-2 10 -4z m200 -6 c0 -5 -2 -10 -4 -10 -3 0 -8 5 -11 10 -3 6 -1 10 4 10 6 0
11 -4 11 -10z m-13 -66 c-3 -3 -12 -4 -19 -1 -8 3 -5 6 6 6 11 1 17 -2 13 -5z
m-57 -93 c0 -5 -7 -12 -15 -15 -12 -4 -15 -15 -11 -43 5 -36 5 -37 -6 -10 -7
15 -15 27 -20 27 -4 0 -2 11 4 25 10 23 48 36 48 16z m160 -27 c0 -8 -5 -12
-10 -9 -6 4 -8 11 -5 16 9 14 15 11 15 -7z m-150 -4 c0 -5 -4 -10 -10 -10 -5
0 -10 5 -10 10 0 6 5 10 10 10 6 0 10 -4 10 -10z m2271 -66 c8 -8 23 -14 32
-14 9 0 17 -4 17 -9 0 -13 39 -25 75 -23 17 2 40 -4 50 -13 20 -14 20 -14 1
-15 -20 0 -20 0 0 -15 19 -14 18 -14 -4 -15 -12 0 -30 4 -40 9 -40 20 -80 28
-96 19 -9 -5 -16 -5 -16 -1 0 5 -12 16 -27 26 -16 9 -39 26 -52 38 -21 17 -22
22 -10 29 16 11 47 4 70 -16z m-2331 -14 c8 -5 11 -10 5 -10 -5 0 -17 5 -25
10 -8 5 -10 10 -5 10 6 0 17 -5 25 -10z m2052 -40 c21 -10 47 -16 58 -13 22 6
28 -12 8 -20 -8 -3 -6 -6 5 -6 9 -1 17 -5 17 -10 0 -5 10 -11 22 -14 21 -6 21
-7 3 -27 -22 -24 -15 -36 14 -21 14 8 22 8 26 0 4 -6 14 -8 23 -4 8 3 23 -3
34 -15 10 -11 16 -20 12 -20 -4 0 0 -8 8 -17 20 -23 49 -99 41 -107 -3 -3 8
-9 26 -12 17 -4 34 -11 38 -17 6 -10 -29 -6 -75 8 -32 10 -20 -15 17 -36 17
-10 28 -25 28 -35 -2 -14 6 -20 26 -22 25 -3 27 -1 23 23 -6 34 16 42 51 19
30 -20 41 -44 21 -44 -6 0 -3 -7 8 -15 10 -8 14 -15 8 -15 -6 0 -19 9 -29 20
-18 20 -51 28 -40 10 4 -6 -12 -10 -42 -10 -44 -1 -47 -2 -29 -15 11 -8 32
-15 47 -15 39 0 76 -16 102 -43 12 -13 31 -29 42 -35 18 -11 18 -11 -9 -12
-28 0 -28 -1 -13 -18 20 -22 23 -56 5 -47 -7 4 -2 -3 12 -14 27 -22 17 -27
-24 -11 -17 6 -26 6 -26 0 0 -6 4 -10 9 -10 6 0 9 -9 8 -20 -1 -11 -7 -20 -15
-20 -7 0 -10 -5 -6 -11 4 -7 -1 -10 -12 -7 -22 4 -61 98 -41 98 7 1 4 6 -6 14
-10 8 -18 17 -18 20 3 23 -1 36 -10 36 -5 0 -7 -4 -4 -10 3 -5 2 -10 -4 -10
-5 0 -8 -9 -6 -20 4 -23 -14 -27 -34 -7 -12 10 -13 9 -7 -7 4 -11 2 -23 -6
-27 -9 -6 -9 -11 1 -23 11 -14 11 -16 -3 -16 -11 0 -14 -4 -9 -12 8 -14 9 -21
16 -90 3 -27 1 -48 -5 -48 -5 0 -6 -5 -2 -11 8 -14 -38 10 -48 25 -4 6 -2 14
4 17 15 9 1 42 -15 36 -6 -2 -12 -11 -12 -20 0 -8 -4 -19 -8 -23 -4 -4 -7 -18
-7 -31 0 -13 -5 -23 -11 -23 -5 0 -9 -8 -8 -17 5 -55 0 -63 -38 -64 -37 0 -38
0 -15 -16 21 -15 33 -41 12 -28 -11 7 -5 -10 21 -64 22 -47 15 -67 -17 -46
-13 8 -32 15 -43 15 -16 0 -18 -5 -15 -30 6 -33 0 -36 -36 -15 -44 25 -45 16
-2 -25 41 -38 42 -40 25 -59 -12 -14 -24 -19 -40 -15 -17 5 -23 2 -23 -10 0
-9 -7 -16 -16 -16 -13 0 -15 -8 -12 -40 4 -41 -7 -54 -19 -22 -7 18 -22 32
-37 32 -6 0 -2 -6 9 -13 12 -9 14 -16 7 -21 -6 -4 -9 -13 -6 -21 8 -20 -22
-30 -41 -15 -10 8 -15 9 -15 2 0 -6 5 -14 11 -18 24 -14 -14 -21 -42 -7 -20
10 -34 11 -47 4 -24 -13 -31 -6 -25 19 3 11 10 17 16 13 7 -4 8 0 4 11 -6 14
-3 17 10 12 12 -5 14 -4 8 2 -16 15 -112 55 -97 41 16 -17 15 -32 -2 -26 -20
8 -25 -25 -6 -40 13 -11 13 -12 -3 -13 -10 0 -20 7 -24 15 -3 9 -23 25 -45 36
-22 11 -37 23 -34 26 3 4 1 12 -5 20 -15 18 1 17 37 -2 16 -8 23 -15 17 -15
-23 0 -13 -18 12 -22 29 -6 29 -7 13 27 -6 14 -19 25 -30 25 -10 0 -18 7 -18
16 0 13 3 14 13 5 8 -6 30 -12 50 -13 20 -2 37 -6 37 -10 0 -5 5 -8 11 -8 7 0
5 9 -4 24 l-16 24 65 -24 c78 -28 86 -33 79 -45 -4 -5 1 -9 9 -9 9 0 16 7 16
15 0 10 10 15 26 15 24 0 25 2 13 17 -11 13 -12 17 -1 21 10 3 8 8 -5 18 -21
16 -37 18 -28 4 3 -6 1 -10 -5 -10 -6 0 -8 -4 -5 -10 3 -5 2 -10 -3 -10 -6 0
-12 7 -16 15 -3 8 -11 15 -18 15 -10 0 -10 -2 1 -9 8 -5 9 -11 3 -15 -14 -9
-64 33 -55 47 4 7 -1 6 -10 -2 -9 -7 -26 -11 -36 -8 -11 3 -22 0 -23 -5 -2 -5
-14 -1 -28 10 -19 15 -30 18 -54 11 -42 -12 -49 -11 -72 7 -10 8 -13 13 -6 9
6 -3 12 -1 12 5 0 7 -9 14 -19 17 -11 3 -22 16 -25 29 -8 28 -26 23 -26 -8 0
-11 8 -22 20 -25 11 -3 20 -12 20 -19 0 -24 -17 -15 -46 24 -15 20 -32 39 -36
40 -4 2 -8 13 -8 23 0 11 -4 18 -9 15 -7 -5 -7 -71 0 -71 1 0 2 -12 3 -27 1
-15 11 -37 21 -50 12 -14 14 -18 4 -10 -14 10 -18 10 -23 -5 -4 -10 -4 -15 -1
-12 3 4 20 -7 36 -22 17 -16 37 -29 45 -29 16 0 19 -16 4 -25 -12 -8 -51 13
-47 25 1 6 -9 16 -23 23 -14 7 -29 22 -35 35 -11 25 -25 29 -25 8 0 -18 24
-43 48 -50 10 -4 19 -13 19 -21 0 -12 -3 -13 -16 -3 -29 23 -59 37 -64 30 -2
-4 -2 -1 -1 5 2 7 -5 17 -14 22 -15 9 -15 10 3 11 17 1 16 5 -12 30 -30 27
-44 48 -25 36 5 -3 9 1 9 9 0 20 -46 43 -56 27 -5 -8 -15 -10 -27 -5 -17 6
-17 5 -5 -10 7 -9 22 -17 32 -17 11 0 19 -4 19 -10 0 -14 -12 -12 -40 7 -21
15 -23 15 -17 1 3 -10 0 -19 -8 -22 -11 -4 -12 0 -5 19 8 20 5 25 -21 35 -17
8 -28 18 -25 25 2 7 2 16 -2 20 -4 4 -7 11 -7 16 0 19 -20 9 -26 -13 l-5 -23
-12 23 c-11 19 -10 22 3 22 9 0 13 5 10 10 -4 6 7 10 25 10 29 0 30 1 19 23
l-12 22 22 -20 c19 -16 25 -17 43 -6 11 7 17 8 14 2 -4 -6 -1 -9 7 -6 7 3 30
-1 50 -10 37 -15 37 -15 25 5 -7 11 -20 20 -30 20 -9 0 -23 6 -30 13 -7 6 -19
12 -25 13 -7 1 -25 2 -39 3 -20 1 -24 5 -19 20 5 15 0 21 -24 26 -28 6 -29 8
-18 33 l12 26 9 -26 c8 -23 43 -44 54 -33 8 7 -10 46 -36 77 l-26 31 27 -5
c27 -5 27 -5 9 11 -10 9 -27 21 -38 28 -19 10 -20 8 -19 -23 1 -37 -6 -42 -25
-19 -9 11 -9 15 -1 15 7 0 11 8 10 18 -2 9 1 27 5 39 6 19 11 21 27 13 24 -13
25 -2 2 16 -17 12 -17 13 2 10 11 -2 21 -12 23 -24 3 -20 32 -40 32 -22 0 5 6
7 13 4 8 -3 19 1 25 8 8 11 6 17 -10 27 -11 7 -17 8 -13 2 10 -17 -21 -13 -35
4 -9 10 -9 15 -1 15 6 0 11 7 11 16 0 9 11 25 26 36 23 19 24 22 9 38 -15 16
-14 18 4 23 11 3 22 0 24 -7 3 -8 8 -8 18 1 8 7 25 10 37 6 16 -4 22 -1 22 11
0 10 -8 16 -22 16 -43 0 -9 11 38 13 64 2 132 -12 114 -23 -10 -6 -8 -10 8
-19 15 -8 21 -8 25 2 7 19 -13 49 -28 43 -20 -7 -76 14 -69 25 3 6 0 16 -6 24
-10 12 -8 15 11 15 l24 1 -24 19 c-13 11 -18 20 -12 20 12 0 36 48 32 63 -1 5
8 11 19 14 11 3 17 10 13 15 -3 6 0 8 8 6 8 -3 25 -1 39 4 14 6 44 10 67 9 23
0 45 5 49 10 4 7 0 9 -13 5 -13 -4 -26 1 -38 14 -11 12 -14 20 -6 20 8 0 10 7
6 21 -7 20 -4 21 34 17 23 -2 41 0 41 5 0 4 4 6 9 3 5 -4 20 -2 33 3 18 8 19
10 5 10 -24 1 -17 23 9 27 35 6 72 -7 77 -27 4 -14 14 -19 38 -19 l33 0 -24
17 c-14 9 -31 23 -38 30 -8 7 -22 18 -33 23 -23 13 -25 40 -3 40 8 0 12 5 9
10 -4 6 8 10 29 10 27 0 34 -3 30 -15 -4 -8 -1 -15 6 -15 6 0 9 4 5 9 -3 5 -1
12 5 16 5 3 7 17 4 31 -6 24 0 28 36 25 11 -1 9 3 -5 14 -19 16 -18 16 20 9
22 -3 57 -15 77 -24z m-1976 -37 c-10 -10 -19 5 -10 18 6 11 8 11 12 0 2 -7 1
-15 -2 -18z m222 14 c14 4 14 3 3 -5 -11 -8 -10 -15 9 -41 18 -26 25 -30 36
-20 12 10 13 9 8 -5 -4 -11 -13 -14 -33 -9 -14 3 -29 11 -33 17 -5 8 -8 7 -8
-1 0 -7 -7 -13 -16 -13 -13 0 -13 2 -2 13 7 8 20 17 28 20 8 4 0 4 -17 1 -30
-5 -33 -4 -31 19 1 14 5 24 9 21 4 -2 11 1 15 8 6 9 9 9 11 1 3 -7 12 -9 21
-6z m607 3 c-3 -5 -12 -10 -18 -10 -7 0 -6 4 3 10 19 12 23 12 15 0z m-190
-50 c10 8 15 9 15 2 0 -24 -24 -23 -49 2 -22 22 -24 28 -11 36 12 7 17 3 23
-21 7 -25 11 -29 22 -19z m-128 18 c-3 -8 -6 -5 -6 6 -1 11 2 17 5 13 3 -3 4
-12 1 -19z m50 0 c-3 -8 -6 -5 -6 6 -1 11 2 17 5 13 3 -3 4 -12 1 -19z m203 6
c0 -15 -15 -34 -27 -34 -8 0 -11 5 -8 10 4 6 -5 10 -19 10 -14 0 -26 4 -26 8
0 5 18 9 40 9 22 0 40 -1 40 -3z m-767 -25 c4 -16 3 -18 -9 -8 -8 6 -23 9 -34
6 -27 -7 -25 1 3 13 32 13 34 12 40 -11z m304 -1 c-3 -8 -6 -5 -6 6 -1 11 2
17 5 13 3 -3 4 -12 1 -19z m2022 8 c9 -10 8 -16 -4 -26 -12 -10 -12 -15 1 -36
15 -22 15 -24 0 -30 -26 -10 -98 20 -107 44 -8 21 -6 22 39 22 34 0 43 3 32
10 -8 5 -10 10 -5 10 6 0 3 5 -5 10 -12 8 -9 10 11 10 15 0 32 -6 38 -14z
m-2402 -18 c-3 -8 -6 -5 -6 6 -1 11 2 17 5 13 3 -3 4 -12 1 -19z m2473 -3 c7
-8 21 -15 31 -15 18 0 76 -55 79 -75 1 -5 6 -15 11 -21 10 -13 2 -44 -12 -44
-5 0 -18 9 -29 20 -16 16 -60 29 -60 17 0 -1 4 -17 9 -35 7 -22 6 -32 -2 -32
-6 0 -2 -7 9 -15 14 -11 15 -14 4 -15 -12 0 -13 -2 -1 -9 11 -7 9 -11 -8 -21
-31 -16 -54 -6 -46 20 4 14 2 20 -8 20 -20 0 -51 36 -38 45 6 3 11 15 11 26 0
11 6 22 14 25 8 3 13 16 11 30 -1 15 3 24 11 24 18 0 18 20 -2 48 -17 24 -4
31 16 7z m-2308 -19 c-4 -6 -7 -22 -8 -36 0 -14 -4 -32 -8 -39 -5 -8 -3 -17 5
-22 11 -6 8 -9 -8 -9 -17 0 -21 5 -18 22 3 12 -3 30 -12 40 -18 20 -38 24 -27
6 4 -7 3 -9 -1 -5 -11 10 -15 37 -6 37 4 0 16 -8 27 -18 13 -13 22 -15 30 -8
8 8 7 14 -5 24 -9 8 -10 10 -2 6 10 -5 13 -3 8 8 -4 12 -1 14 14 11 11 -3 16
-10 11 -17z m228 4 c0 -5 -2 -10 -4 -10 -3 0 -8 5 -11 10 -3 6 -1 10 4 10 6 0
11 -4 11 -10z m265 -40 c-3 -5 -12 -10 -18 -10 -7 0 -6 4 3 10 19 12 23 12 15
0z m-318 -22 c-3 -8 -6 -5 -6 6 -1 11 2 17 5 13 3 -3 4 -12 1 -19z m53 2 c0
-5 -2 -10 -4 -10 -3 0 -8 5 -11 10 -3 6 -1 10 4 10 6 0 11 -4 11 -10z m1325 0
c3 -5 -1 -10 -9 -10 -8 0 -18 5 -21 10 -3 6 1 10 9 10 8 0 18 -4 21 -10z
m-1438 -34 c10 -12 11 -15 3 -8 -20 17 -43 15 -36 -3 3 -9 0 -15 -9 -15 -16 0
-18 9 -10 33 8 20 32 17 52 -7z m83 -6 c0 -5 -2 -10 -4 -10 -3 0 -8 5 -11 10
-3 6 -1 10 4 10 6 0 11 -4 11 -10z m-110 -46 c0 -2 -7 -4 -15 -4 -8 0 -15 4
-15 10 0 5 7 7 15 4 8 -4 15 -8 15 -10z m36 -25 c-8 -50 -24 -56 -22 -10 0 27
5 41 14 41 9 0 12 -9 8 -31z m2089 11 c3 -5 2 -10 -4 -10 -5 0 -13 5 -16 10
-3 6 -2 10 4 10 5 0 13 -4 16 -10z m-2120 -10 c3 -5 1 -10 -4 -10 -6 0 -11 5
-11 10 0 6 2 10 4 10 3 0 8 -4 11 -10z m65 -22 c0 -5 -4 -8 -10 -8 -5 0 -10
10 -10 23 0 18 2 19 10 7 5 -8 10 -18 10 -22z m60 12 c0 -5 -4 -10 -10 -10 -5
0 -10 5 -10 10 0 6 5 10 10 10 6 0 10 -4 10 -10z m5 -30 c-3 -5 -12 -10 -20
-10 -7 0 -17 -9 -20 -20 -4 -11 -10 -18 -15 -15 -5 3 -11 -3 -13 -12 -4 -14
-5 -13 -6 5 0 12 -6 22 -12 22 -5 0 -7 -4 -4 -10 3 -6 -1 -7 -9 -4 -23 9 -20
19 9 32 14 6 24 8 24 4 -3 -20 3 -21 23 -2 22 20 54 28 43 10z m2200 -28 c13
-9 16 -42 3 -42 -5 0 -6 -5 -3 -11 4 -5 4 -21 1 -34 -6 -22 -9 -23 -31 -13
-13 6 -22 15 -19 20 3 5 1 15 -6 23 -8 10 -8 15 3 22 7 4 16 16 20 26 7 18 16
21 32 9z m-2208 -18 c-3 -3 -12 -4 -19 -1 -8 3 -5 6 6 6 11 1 17 -2 13 -5z
m-7 -28 c0 -3 -4 -8 -10 -11 -5 -3 -10 -1 -10 4 0 6 5 11 10 11 6 0 10 -2 10
-4z m1090 -6 c0 -5 -7 -7 -15 -4 -8 4 -15 8 -15 10 0 2 7 4 15 4 8 0 15 -4 15
-10z m-1150 -15 c0 -8 -2 -15 -4 -15 -2 0 -6 7 -10 15 -3 8 -1 15 4 15 6 0 10
-7 10 -15z m-1909 -19 c5 3 9 0 9 -5 0 -6 -4 -11 -10 -11 -5 0 -10 -15 -10
-32 1 -31 1 -32 15 -14 13 18 20 15 16 -6 0 -5 4 -8 9 -8 21 0 9 -27 -17 -40
-17 -7 -23 -14 -15 -17 7 -3 19 0 27 7 11 9 18 9 30 -4 25 -25 9 -62 -35 -80
-20 -8 -40 -22 -44 -31 -3 -9 -10 -14 -15 -10 -5 3 -12 1 -16 -5 -3 -5 -12
-10 -18 -10 -7 0 -6 4 3 10 13 8 13 10 -2 10 -15 0 -16 4 -8 26 9 21 6 31 -14
54 -13 16 -25 28 -28 27 -2 -1 0 2 4 8 5 5 8 17 8 27 0 10 7 21 15 24 10 4 13
13 9 27 -5 17 -3 19 18 15 27 -5 48 12 49 39 0 11 3 13 6 5 2 -6 9 -10 14 -6z
m4194 -134 c-3 -3 -11 0 -18 7 -9 10 -8 11 6 5 10 -3 15 -9 12 -12z m-202 -61
c3 -14 1 -18 -9 -14 -8 3 -14 11 -14 19 0 21 17 17 23 -5z m7 -41 c0 -5 -2
-10 -4 -10 -3 0 -8 5 -11 10 -3 6 -1 10 4 10 6 0 11 -4 11 -10z m65 -70 c3 -6
-1 -7 -9 -4 -18 7 -21 14 -7 14 6 0 13 -4 16 -10z m-160 -69 c3 -5 1 -12 -4
-15 -5 -3 -11 1 -15 9 -6 16 9 21 19 6z m-1125 -21 c0 -5 -5 -10 -11 -10 -5 0
-7 5 -4 10 3 6 8 10 11 10 2 0 4 -4 4 -10z m1115 -20 c3 -5 1 -10 -4 -10 -6 0
-11 5 -11 10 0 6 2 10 4 10 3 0 8 -4 11 -10z m-1061 -105 c-4 -8 -10 -12 -15
-9 -14 8 -10 24 6 24 9 0 12 -6 9 -15z m-40 -110 c3 -8 2 -15 -3 -15 -5 0 -14
7 -21 15 -10 12 -10 15 3 15 8 0 17 -7 21 -15z m388 -67 c3 1 12 -6 20 -15 7
-10 8 -14 1 -10 -6 4 -13 3 -15 -2 -1 -5 -16 4 -33 21 -28 28 -28 30 -5 17 14
-7 28 -12 32 -11z m49 -15 c13 -16 12 -17 -3 -4 -10 7 -18 15 -18 17 0 8 8 3
21 -13z m-257 -8 c11 -8 17 -17 14 -20 -7 -8 -58 16 -58 27 0 13 23 9 44 -7z
m379 9 c9 -10 -16 -32 -30 -27 -20 8 -15 33 5 33 10 0 21 -3 25 -6z m-389 -55
c-2 -4 4 -6 13 -5 9 0 21 -12 29 -31 12 -28 12 -32 -1 -27 -8 4 -15 12 -15 20
0 8 -6 14 -14 14 -9 0 -12 -7 -9 -21 5 -19 4 -20 -17 -9 -16 9 -19 14 -10 20
8 5 9 16 5 30 -6 18 -9 20 -16 9 -8 -12 -11 -12 -19 1 -6 10 -6 16 0 18 6 2 8
8 5 13 -3 5 7 1 24 -8 16 -10 28 -20 25 -24z m-39 -51 c18 -15 22 -24 13 -29
-13 -8 -59 31 -52 43 7 12 11 10 39 -14z m770 12 c3 -5 2 -10 -4 -10 -5 0 -13
5 -16 10 -3 6 -2 10 4 10 5 0 13 -4 16 -10z m-541 -59 c-6 -6 -24 19 -24 34 1
6 7 1 15 -9 8 -11 12 -22 9 -25z m110 11 c5 -3 -1 -9 -14 -14 -15 -5 -27 -5
-34 2 -8 8 -5 9 9 4 18 -7 19 -6 6 9 -12 16 -12 17 5 11 10 -4 23 -9 28 -12z
m-277 2 c-3 -3 -12 -4 -19 -1 -8 3 -5 6 6 6 11 1 17 -2 13 -5z m-27 -35 c0 -4
-7 -6 -15 -3 -8 4 -15 10 -15 15 0 4 7 6 15 3 8 -4 15 -10 15 -15z m-2650 -69
c0 -5 -2 -10 -4 -10 -3 0 -8 5 -11 10 -3 6 -1 10 4 10 6 0 11 -4 11 -10z m144
-246 c26 -25 46 -47 44 -49 -6 -7 -58 8 -58 16 0 5 -7 9 -15 9 -15 0 -19 11
-16 39 2 7 -2 10 -8 6 -6 -3 -11 1 -11 9 0 26 14 19 64 -30z"/>
<path d="M2632 6591 c4 -13 18 -16 19 -4 0 4 -5 9 -11 12 -7 2 -11 -2 -8 -8z"/>
<path d="M2677 6543 c4 -11 3 -14 -5 -9 -7 4 -12 3 -12 -3 0 -15 21 -24 31
-14 11 11 2 43 -12 43 -4 0 -5 -7 -2 -17z"/>
<path d="M2797 6515 c-9 -22 8 -26 21 -4 10 15 10 19 -2 19 -8 0 -16 -7 -19
-15z"/>
<path d="M2720 6500 c0 -5 5 -10 11 -10 5 0 7 5 4 10 -3 6 -8 10 -11 10 -2 0
-4 -4 -4 -10z"/>
<path d="M2804 6439 c2 -26 0 -53 -5 -61 -4 -7 -4 -20 0 -27 13 -21 22 70 11
104 -9 27 -10 26 -6 -16z"/>
<path d="M2841 6384 c0 -11 3 -14 6 -6 3 7 2 16 -1 19 -3 4 -6 -2 -5 -13z"/>
<path d="M2720 6355 c0 -20 17 -28 23 -11 3 8 -1 17 -9 20 -8 3 -14 -1 -14 -9z"/>
<path d="M3660 6058 c0 -4 4 -8 9 -8 6 0 12 4 15 8 3 5 -1 9 -9 9 -8 0 -15 -4
-15 -9z"/>
<path d="M3600 5980 c0 -5 5 -10 11 -10 5 0 7 5 4 10 -3 6 -8 10 -11 10 -2 0
-4 -4 -4 -10z"/>
<path d="M6924 5965 c-18 -14 -18 -14 4 -15 15 0 21 -4 16 -12 -4 -6 -3 -9 2
-5 5 3 25 2 44 -2 l35 -8 -27 -11 c-15 -6 -54 -9 -87 -7 -81 4 -87 -11 -7 -19
61 -6 115 8 131 35 4 5 17 9 30 9 13 0 26 4 29 9 8 12 -81 33 -105 26 -11 -4
-19 -2 -19 4 0 16 -23 14 -46 -4z"/>
<path d="M5726 5924 c-5 -14 -4 -15 9 -4 17 14 19 20 6 20 -5 0 -12 -7 -15
-16z"/>
<path d="M5781 5914 c0 -11 3 -14 6 -6 3 7 2 16 -1 19 -3 4 -6 -2 -5 -13z"/>
<path d="M7023 5899 c-18 -18 7 -40 30 -27 15 8 16 11 3 23 -18 18 -19 18 -33
4z"/>
<path d="M7070 5865 c-8 -9 -8 -15 -2 -15 12 0 26 19 19 26 -2 2 -10 -2 -17
-11z"/>
<path d="M7290 5819 c0 -5 5 -7 10 -4 6 3 10 8 10 11 0 2 -4 4 -10 4 -5 0 -10
-5 -10 -11z"/>
<path d="M7114 5801 c2 -9 14 -17 29 -19 15 -2 27 -7 27 -12 0 -4 8 -6 18 -4
9 2 31 5 49 7 17 1 32 7 32 12 1 15 -47 25 -82 18 -17 -3 -28 -2 -25 3 4 5 -7
9 -22 10 -20 1 -27 -3 -26 -15z"/>
<path d="M7385 5730 c-3 -5 1 -10 9 -10 9 0 16 5 16 10 0 6 -4 10 -9 10 -6 0
-13 -4 -16 -10z"/>
<path d="M5520 5679 c0 -5 5 -7 10 -4 6 3 10 8 10 11 0 2 -4 4 -10 4 -5 0 -10
-5 -10 -11z"/>
<path d="M7185 5670 c3 -5 12 -7 20 -3 21 7 19 13 -6 13 -11 0 -18 -4 -14 -10z"/>
<path d="M5413 5624 c-3 -8 -1 -20 6 -27 8 -8 11 -4 11 16 0 30 -7 35 -17 11z"/>
<path d="M6430 5630 c0 -5 5 -10 11 -10 5 0 7 5 4 10 -3 6 -8 10 -11 10 -2 0
-4 -4 -4 -10z"/>
<path d="M7613 5633 c-20 -7 -15 -22 7 -20 20 1 27 12 13 20 -5 2 -14 2 -20 0z"/>
<path d="M7660 5630 c-8 -5 -10 -10 -5 -10 6 0 17 5 25 10 8 5 11 10 5 10 -5
0 -17 -5 -25 -10z"/>
<path d="M7675 5595 c-16 -7 -23 -14 -14 -14 8 -1 24 6 35 14 24 18 18 18 -21
0z"/>
<path d="M6106 5566 c-37 -22 -38 -23 -15 -30 20 -5 21 -8 9 -16 -8 -5 -10
-10 -4 -10 16 0 33 21 27 35 -2 7 5 16 16 20 12 3 21 11 21 16 0 14 -12 11
-54 -15z"/>
<path d="M6350 5579 c0 -5 5 -7 10 -4 6 3 10 8 10 11 0 2 -4 4 -10 4 -5 0 -10
-5 -10 -11z"/>
<path d="M6188 5573 c7 -3 16 -2 19 1 4 3 -2 6 -13 5 -11 0 -14 -3 -6 -6z"/>
<path d="M5938 5543 c7 -3 16 -2 19 1 4 3 -2 6 -13 5 -11 0 -14 -3 -6 -6z"/>
<path d="M6331 5534 c-12 -14 -11 -16 4 -12 10 1 20 9 23 16 5 17 -10 15 -27
-4z"/>
<path d="M6145 5530 c-3 -5 -2 -10 4 -10 5 0 13 5 16 10 3 6 2 10 -4 10 -5 0
-13 -4 -16 -10z"/>
<path d="M6220 5460 c-13 -8 -13 -10 2 -10 9 0 20 5 23 10 8 13 -5 13 -25 0z"/>
<path d="M5685 5359 c-4 -6 -5 -12 -2 -15 2 -3 7 2 10 11 7 17 1 20 -8 4z"/>
<path d="M6165 5360 c-3 -5 -2 -10 4 -10 5 0 13 5 16 10 3 6 2 10 -4 10 -5 0
-13 -4 -16 -10z"/>
<path d="M6275 5330 c-3 -5 -1 -10 4 -10 6 0 11 5 11 10 0 6 -2 10 -4 10 -3 0
-8 -4 -11 -10z"/>
<path d="M5231 5286 c-9 -11 -9 -16 0 -22 7 -4 9 -3 5 4 -3 5 0 12 6 15 7 2
10 7 7 11 -3 4 -12 0 -18 -8z"/>
<path d="M6545 5260 c-3 -5 1 -10 10 -10 9 0 13 5 10 10 -3 6 -8 10 -10 10 -2
0 -7 -4 -10 -10z"/>
<path d="M5590 5228 c0 -4 7 -8 15 -8 8 0 15 -5 15 -12 0 -6 2 -9 5 -6 10 9
-5 35 -20 35 -8 0 -15 -4 -15 -9z"/>
<path d="M6062 5198 c-6 -13 -11 -32 -9 -43 1 -12 -4 -20 -13 -20 -8 0 -19 -4
-23 -10 -6 -6 -10 -6 -14 3 -8 19 -23 14 -23 -8 0 -11 4 -20 8 -20 4 0 7 -18
5 -40 -1 -22 2 -40 8 -40 5 0 8 3 8 8 -3 18 2 26 9 14 6 -9 16 -10 32 -4 23 9
23 9 2 14 -19 5 -20 9 -9 32 12 26 27 35 27 16 0 -5 5 -10 12 -10 9 0 9 3 1
11 -7 7 -9 32 -6 65 6 59 3 66 -15 32z"/>
<path d="M6266 5210 c-15 -5 -16 -9 -7 -14 7 -5 18 -3 24 3 14 14 6 20 -17 11z"/>
<path d="M7590 5204 l-25 -13 27 -1 c15 0 29 4 33 9 10 17 -10 20 -35 5z"/>
<path d="M5581 5201 c-8 -5 -9 -11 -3 -15 5 -3 12 1 16 9 6 17 6 18 -13 6z"/>
<path d="M6180 5150 c0 -5 7 -7 15 -4 8 4 15 8 15 10 0 2 -7 4 -15 4 -8 0 -15
-4 -15 -10z"/>
<path d="M6238 5143 c7 -3 16 -2 19 1 4 3 -2 6 -13 5 -11 0 -14 -3 -6 -6z"/>
<path d="M5136 5125 c4 -8 8 -15 10 -15 2 0 4 7 4 15 0 8 -4 15 -10 15 -5 0
-7 -7 -4 -15z"/>
<path d="M5950 5060 c-13 -8 -13 -10 2 -10 9 0 20 5 23 10 8 13 -5 13 -25 0z"/>
<path d="M5898 5043 c7 -3 16 -2 19 1 4 3 -2 6 -13 5 -11 0 -14 -3 -6 -6z"/>
<path d="M5380 5014 c0 -8 5 -12 10 -9 6 4 8 11 5 16 -9 14 -15 11 -15 -7z"/>
<path d="M5880 4920 c0 -12 28 -25 36 -17 3 3 -4 10 -15 17 -15 7 -21 7 -21 0z"/>
<path d="M7216 4904 c-4 -10 3 -14 25 -14 32 0 32 14 0 23 -12 3 -22 -1 -25
-9z"/>
<path d="M5734 4864 c3 -21 13 -27 32 -20 13 5 15 9 6 18 -17 17 -40 18 -38 2z"/>
<path d="M5960 4872 c0 -4 5 -13 11 -19 8 -8 7 -13 -2 -18 -7 -5 -10 -4 -6 3
5 6 -1 8 -15 4 -21 -5 -21 -5 2 -14 20 -7 22 -11 10 -18 -9 -6 -10 -10 -3 -10
19 0 44 42 33 55 -5 7 -7 15 -3 18 3 4 -1 7 -10 7 -9 0 -17 -4 -17 -8z"/>
<path d="M5240 4841 c0 -10 19 -25 25 -20 1 2 -3 10 -11 17 -8 7 -14 8 -14 3z"/>
<path d="M7110 4799 c0 -5 6 -9 14 -9 8 0 16 -4 18 -10 2 -5 8 -6 15 -2 8 5 3
12 -17 19 -17 6 -30 7 -30 2z"/>
<path d="M5095 4781 c-32 -27 -28 -42 5 -23 16 9 30 20 30 24 0 15 -16 15 -35
-1z"/>
<path d="M5115 4720 c4 -6 11 -8 16 -5 14 9 11 15 -7 15 -8 0 -12 -5 -9 -10z"/>
<path d="M5090 4699 c0 -5 -4 -7 -10 -4 -5 3 -10 2 -10 -4 0 -5 3 -12 8 -15
10 -6 43 19 35 27 -10 11 -23 8 -23 -4z"/>
<path d="M4708 4675 c2 -14 6 -25 8 -25 2 0 4 11 4 25 0 14 -4 25 -9 25 -4 0
-6 -11 -3 -25z"/>
<path d="M6270 4639 c0 -5 5 -7 10 -4 6 3 10 8 10 11 0 2 -4 4 -10 4 -5 0 -10
-5 -10 -11z"/>
<path d="M7051 4629 c-23 -19 -23 -19 -2 -19 12 0 20 4 17 9 -4 5 0 11 6 14 7
2 11 7 8 10 -3 3 -16 -3 -29 -14z"/>
<path d="M5798 4603 c7 -3 16 -2 19 1 4 3 -2 6 -13 5 -11 0 -14 -3 -6 -6z"/>
<path d="M5638 4573 c7 -3 16 -2 19 1 4 3 -2 6 -13 5 -11 0 -14 -3 -6 -6z"/>
<path d="M5825 4550 c3 -5 8 -10 11 -10 2 0 4 5 4 10 0 6 -5 10 -11 10 -5 0
-7 -4 -4 -10z"/>
<path d="M5940 4520 c0 -5 5 -10 11 -10 5 0 7 5 4 10 -3 6 -8 10 -11 10 -2 0
-4 -4 -4 -10z"/>
<path d="M5984 4505 c-10 -8 -14 -14 -9 -15 15 0 40 18 34 24 -3 3 -14 -1 -25
-9z"/>
<path d="M5900 4490 c-1 -8 -1 -21 0 -29 1 -9 -4 -12 -14 -8 -9 4 -16 3 -16
-2 0 -10 -51 -33 -58 -26 -4 3 4 8 16 12 12 3 22 10 22 15 0 6 -8 7 -17 4 -15
-6 -15 -4 2 14 18 20 18 20 -3 20 -13 0 -22 -6 -22 -15 0 -10 -10 -15 -30 -15
-16 0 -30 -4 -30 -10 0 -5 -5 -9 -11 -7 -6 1 -13 -9 -15 -22 -3 -14 -5 -25 -7
-26 -1 0 -25 -18 -54 -40 -50 -37 -59 -55 -27 -55 8 0 13 4 9 9 -3 5 -1 12 3
15 12 7 33 -40 26 -59 -4 -8 -1 -15 5 -15 10 0 16 21 12 43 -1 7 14 11 35 8 6
-1 11 5 11 13 0 8 -7 11 -18 9 -9 -3 -20 0 -23 6 -4 6 1 11 11 12 11 0 13 3 5
6 -10 4 -10 8 -1 19 6 8 16 11 22 7 6 -4 8 2 5 14 -7 27 26 57 49 44 14 -8 14
-10 -4 -19 -11 -6 -23 -8 -27 -5 -3 3 -6 -4 -6 -16 0 -18 5 -22 23 -19 12 2
21 9 20 16 -2 7 8 12 22 12 15 0 25 -5 24 -12 -1 -7 -1 -21 0 -32 1 -14 4 -16
14 -7 8 6 17 8 21 4 4 -4 4 0 1 9 -4 10 -13 14 -23 11 -13 -5 -14 -3 -6 6 9
10 16 10 33 -1 19 -11 23 -11 32 5 6 9 18 17 27 17 15 1 15 2 -2 15 -16 12
-22 12 -34 2 -12 -10 -14 -9 -10 3 2 8 14 16 26 18 12 2 22 7 22 12 0 5 -6 7
-14 4 -10 -4 -16 3 -19 23 -2 15 -5 21 -7 13z"/>
<path d="M5940 4490 c0 -5 5 -10 11 -10 5 0 7 5 4 10 -3 6 -8 10 -11 10 -2 0
-4 -4 -4 -10z"/>
<path d="M5995 4469 c-4 -6 -5 -12 -2 -15 2 -3 7 2 10 11 7 17 1 20 -8 4z"/>
<path d="M4937 4463 c-4 -3 -7 -11 -7 -17 0 -6 5 -5 12 2 6 6 9 14 7 17 -3 3
-9 2 -12 -2z"/>
<path d="M6793 4455 c-17 -19 -16 -25 2 -25 8 0 15 9 15 20 0 23 -1 24 -17 5z"/>
<path d="M5665 4439 c-4 -6 -13 -8 -21 -5 -8 3 -14 1 -14 -5 0 -6 -4 -8 -9 -5
-5 4 -7 -2 -4 -12 3 -14 12 -17 34 -14 23 3 29 9 29 28 0 26 -5 30 -15 13z"/>
<path d="M5698 4444 c-5 -4 -8 -16 -8 -28 0 -14 3 -17 11 -9 6 6 9 19 7 28 -1
9 -6 13 -10 9z"/>
<path d="M5518 4403 c7 -3 16 -2 19 1 4 3 -2 6 -13 5 -11 0 -14 -3 -6 -6z"/>
<path d="M6620 4359 c0 -5 5 -7 10 -4 6 3 10 8 10 11 0 2 -4 4 -10 4 -5 0 -10
-5 -10 -11z"/>
<path d="M5783 4345 c-8 -22 0 -27 33 -23 27 3 27 4 10 21 -22 21 -35 22 -43
2z"/>
<path d="M4436 4324 c-4 -9 -4 -19 -1 -22 2 -3 7 3 11 12 4 9 4 19 1 22 -2 3
-7 -3 -11 -12z"/>
<path d="M4706 4331 c-4 -7 -5 -15 -2 -18 9 -9 19 4 14 18 -4 11 -6 11 -12 0z"/>
<path d="M5557 4309 c7 -7 15 -10 18 -7 3 3 -2 9 -12 12 -14 6 -15 5 -6 -5z"/>
<path d="M5883 4313 c-18 -6 -16 -23 1 -23 8 0 16 -6 19 -12 2 -7 8 -10 12 -6
10 10 -18 46 -32 41z"/>
<path d="M5753 4295 c-10 -11 -9 -13 7 -12 20 1 26 12 13 20 -5 3 -14 -1 -20
-8z"/>
<path d="M6644 4269 c0 -40 0 -40 13 -15 7 13 10 32 7 40 -11 28 -20 17 -20
-25z"/>
<path d="M6430 4290 c-9 -6 -10 -10 -3 -10 6 0 15 5 18 10 8 12 4 12 -15 0z"/>
<path d="M4649 4277 c-9 -7 -14 -18 -11 -25 3 -10 9 -7 19 8 18 25 14 33 -8
17z"/>
<path d="M5596 4274 c-9 -23 0 -29 20 -14 13 12 17 11 24 0 5 -8 12 -12 15 -8
8 8 -23 38 -40 38 -7 0 -16 -7 -19 -16z"/>
<path d="M5866 4267 c-28 -20 -10 -48 21 -32 19 10 21 14 10 29 -11 14 -15 15
-31 3z"/>
<path d="M5568 4218 c-20 -25 -23 -38 -8 -38 6 0 10 5 10 11 0 6 8 9 18 7 13
-4 18 1 20 18 2 30 -17 31 -40 2z"/>
<path d="M5640 4228 c0 -4 9 -8 20 -8 11 0 20 4 20 8 0 4 -9 8 -20 8 -11 0
-20 -4 -20 -8z"/>
<path d="M6405 4210 c3 -5 14 -10 23 -10 15 0 15 2 2 10 -20 13 -33 13 -25 0z"/>
<path d="M5652 4185 c-15 -32 -15 -35 -1 -35 5 0 7 5 4 10 -3 6 -2 10 2 10 5
0 9 9 10 20 2 26 -1 25 -15 -5z"/>
<path d="M6408 4179 c-7 -4 -6 -9 1 -13 15 -10 4 -26 -13 -20 -16 6 -29 -33
-15 -42 6 -4 6 -11 -1 -19 -8 -10 -5 -12 15 -12 21 0 25 3 19 21 -4 11 -11 27
-17 34 -6 7 -6 12 -1 11 5 -1 23 -1 39 0 23 1 27 3 15 11 -11 7 -7 10 18 10
19 0 32 5 32 13 0 14 -72 18 -92 6z"/>
<path d="M5580 4170 c0 -5 5 -10 11 -10 5 0 7 5 4 10 -3 6 -8 10 -11 10 -2 0
-4 -4 -4 -10z"/>
<path d="M6520 4135 c-8 -9 -8 -15 -2 -15 12 0 26 19 19 26 -2 2 -10 -2 -17
-11z"/>
<path d="M5685 4119 c-4 -6 -5 -12 -2 -15 2 -3 7 2 10 11 7 17 1 20 -8 4z"/>
<path d="M6447 4119 c7 -7 15 -10 18 -7 3 3 -2 9 -12 12 -14 6 -15 5 -6 -5z"/>
<path d="M6420 4101 c0 -6 5 -13 10 -16 6 -3 10 1 10 9 0 9 -4 16 -10 16 -5 0
-10 -4 -10 -9z"/>
<path d="M5552 4053 c-6 -2 -10 -9 -6 -14 8 -14 21 -11 28 6 6 15 1 17 -22 8z"/>
<path d="M5525 4020 c3 -5 10 -10 16 -10 5 0 9 5 9 10 0 6 -7 10 -16 10 -8 0
-12 -4 -9 -10z"/>
<path d="M5720 3966 c0 -2 7 -7 16 -10 8 -3 12 -2 9 4 -6 10 -25 14 -25 6z"/>
<path d="M5256 3910 c16 -30 58 -45 74 -25 7 9 2 11 -21 10 -23 -1 -33 3 -36
16 -3 10 -11 20 -18 23 -10 3 -10 -2 1 -24z"/>
<path d="M5498 3918 c5 -5 16 -8 23 -6 8 3 3 7 -10 11 -17 4 -21 3 -13 -5z"/>
<path d="M5370 3900 c0 -5 9 -14 20 -20 11 -6 20 -9 20 -8 0 2 -9 11 -20 21
-11 9 -20 13 -20 7z"/>
<path d="M5180 3876 c0 -2 7 -9 15 -16 9 -7 15 -8 15 -2 0 5 -7 12 -15 16 -8
3 -15 4 -15 2z"/>
<path d="M5429 3863 c-13 -16 -12 -17 4 -4 9 7 17 15 17 17 0 8 -8 3 -21 -13z"/>
<path d="M6190 3870 c-13 -8 -12 -10 3 -10 9 0 17 5 17 10 0 12 -1 12 -20 0z"/>
<path d="M5271 3825 c-16 -46 -15 -61 4 -45 13 11 15 10 10 -1 -3 -9 8 -21 27
-32 l33 -19 -22 24 c-13 13 -23 31 -23 40 0 9 -6 18 -12 20 -8 3 -4 9 10 17
27 14 29 30 3 28 -11 0 -23 -14 -30 -32z"/>
<path d="M6190 3829 c-16 -29 -7 -33 27 -14 26 15 26 15 3 9 -22 -6 -23 -5
-11 10 8 10 9 16 3 16 -6 0 -16 -9 -22 -21z"/>
<path d="M5234 3745 c0 -14 5 -25 9 -25 5 0 5 -4 2 -10 -3 -5 0 -10 7 -10 8 0
13 12 14 30 1 16 -3 27 -7 24 -5 -3 -9 0 -9 5 0 6 -4 11 -9 11 -5 0 -8 -11 -7
-25z"/>
<path d="M5520 3755 c-8 -9 -8 -15 -2 -15 12 0 26 19 19 26 -2 2 -10 -2 -17
-11z"/>
<path d="M5285 3740 c-3 -5 -1 -10 4 -10 6 0 11 -10 12 -22 0 -13 3 -17 6 -10
2 6 9 9 15 6 6 -4 6 2 -1 14 -14 27 -28 35 -36 22z"/>
<path d="M5776 3734 c-4 -9 -4 -19 -1 -22 2 -3 7 3 11 12 4 9 4 19 1 22 -2 3
-7 -3 -11 -12z"/>
<path d="M5627 3720 c-3 -11 -3 -20 -1 -20 2 0 8 9 14 20 6 11 7 20 2 20 -6 0
-12 -9 -15 -20z"/>
<path d="M5892 3720 c0 -14 2 -19 5 -12 2 6 2 18 0 25 -3 6 -5 1 -5 -13z"/>
<path d="M6034 3731 c4 -5 1 -12 -4 -14 -6 -3 -5 -4 2 -3 15 3 23 26 8 26 -6
0 -9 -4 -6 -9z"/>
<path d="M5514 3712 c4 -18 1 -22 -11 -18 -11 5 -14 2 -9 -10 3 -8 6 -18 6
-20 0 -2 6 -4 14 -4 8 0 16 10 18 23 2 12 9 21 16 19 8 -1 10 2 7 8 -4 6 -13
9 -20 6 -8 -3 -16 0 -19 7 -4 7 -4 2 -2 -11z"/>
<path d="M5168 3693 c7 -3 16 -2 19 1 4 3 -2 6 -13 5 -11 0 -14 -3 -6 -6z"/>
<path d="M5930 3695 c0 -2 7 -8 15 -15 12 -10 15 -10 15 2 0 8 -7 15 -15 15
-8 0 -15 -1 -15 -2z"/>
<path d="M5317 3684 c-3 -4 -3 -12 0 -18 4 -6 8 -18 10 -26 3 -22 25 -60 35
-60 4 0 8 -12 9 -27 0 -25 1 -26 9 -7 12 30 1 76 -17 70 -8 -3 -11 -2 -8 3 3
5 1 12 -5 16 -6 4 -8 10 -5 14 6 11 -19 44 -28 35z"/>
<path d="M5747 3669 c-10 -11 -16 -23 -13 -26 8 -8 38 25 34 37 -2 6 -11 1
-21 -11z"/>
<path d="M5550 3670 c-9 -6 -10 -10 -3 -10 6 0 15 5 18 10 8 12 4 12 -15 0z"/>
<path d="M5300 3619 c0 -5 5 -7 10 -4 6 3 10 8 10 11 0 2 -4 4 -10 4 -5 0 -10
-5 -10 -11z"/>
<path d="M5518 3607 c-10 -8 -13 -18 -9 -26 6 -9 11 -8 21 4 7 8 9 15 4 15 -5
0 -2 5 6 10 8 5 11 10 5 10 -5 -1 -18 -6 -27 -13z"/>
<path d="M5257 3592 c2 -10 13 -18 23 -19 17 -2 18 0 2 18 -21 24 -32 24 -25
1z"/>
<path d="M5437 3574 c2 -6 13 -10 24 -7 23 6 16 22 -10 20 -10 0 -17 -6 -14
-13z"/>
<path d="M5751 3534 c0 -11 3 -14 6 -6 3 7 2 16 -1 19 -3 4 -6 -2 -5 -13z"/>
<path d="M5183 3511 c0 -9 9 -18 19 -18 22 -2 22 -1 -1 19 -18 16 -20 15 -18
-1z"/>
<path d="M5110 3495 c0 -2 9 -9 20 -15 16 -9 18 -8 14 5 -5 13 -34 22 -34 10z"/>
<path d="M5300 3480 c0 -5 5 -10 11 -10 5 0 7 5 4 10 -3 6 -8 10 -11 10 -2 0
-4 -4 -4 -10z"/>
<path d="M5073 3463 c-21 -8 -15 -22 7 -16 11 3 20 9 20 14 0 10 -8 10 -27 2z"/>
<path d="M5400 3460 c8 -5 20 -10 25 -10 6 0 3 5 -5 10 -8 5 -19 10 -25 10 -5
0 -3 -5 5 -10z"/>
<path d="M5340 3450 c8 -5 20 -10 25 -10 6 0 3 5 -5 10 -8 5 -19 10 -25 10 -5
0 -3 -5 5 -10z"/>
<path d="M3555 5910 c-3 -5 -1 -10 4 -10 6 0 11 5 11 10 0 6 -2 10 -4 10 -3 0
-8 -4 -11 -10z"/>
<path d="M3361 5503 c0 -11 3 -13 6 -5 2 6 10 9 15 6 7 -4 8 -2 4 4 -11 18
-26 14 -25 -5z"/>
<path d="M3406 5511 c-4 -5 -2 -12 3 -15 5 -4 12 -2 15 3 4 5 2 12 -3 15 -5 4
-12 2 -15 -3z"/>
<path d="M3335 5500 c-3 -5 -1 -10 4 -10 6 0 11 5 11 10 0 6 -2 10 -4 10 -3 0
-8 -4 -11 -10z"/>
<path d="M3300 5426 c0 -2 7 -7 16 -10 8 -3 12 -2 9 4 -6 10 -25 14 -25 6z"/>
<path d="M3315 5280 c10 -11 20 -18 23 -16 5 6 -23 36 -34 36 -4 0 1 -9 11
-20z"/>
<path d="M3340 5160 c0 -6 4 -9 9 -6 5 4 12 1 14 -4 3 -6 4 -5 3 2 -3 15 -26
23 -26 8z"/>
<path d="M3240 5094 c0 -8 5 -12 10 -9 6 4 8 11 5 16 -9 14 -15 11 -15 -7z"/>
<path d="M3440 5010 c5 -10 10 -28 10 -39 0 -12 5 -21 10 -21 20 0 6 66 -16
74 -11 4 -12 2 -4 -14z"/>
<path d="M3349 5003 c-13 -16 -12 -17 4 -4 9 7 17 15 17 17 0 8 -8 3 -21 -13z"/>
<path d="M3376 4985 c-21 -31 -21 -59 -1 -51 10 4 15 -1 15 -14 0 -32 16 -23
28 16 8 27 8 41 -1 55 -15 25 -21 24 -41 -6z m34 -4 c0 -5 -7 -11 -14 -14 -10
-4 -13 -1 -9 9 6 15 23 19 23 5z"/>
<path d="M5315 4560 c3 -5 10 -10 16 -10 5 0 9 5 9 10 0 6 -7 10 -16 10 -8 0
-12 -4 -9 -10z"/>
<path d="M5210 4550 c0 -5 6 -10 14 -10 8 0 18 5 21 10 3 6 -3 10 -14 10 -12
0 -21 -4 -21 -10z"/>
<path d="M5305 4540 c-4 -6 3 -10 14 -10 25 0 27 6 6 13 -8 4 -17 2 -20 -3z"/>
<path d="M5135 4520 c-3 -4 5 -10 18 -13 12 -2 29 -8 38 -11 12 -5 18 -1 22
15 4 15 3 19 -5 11 -6 -6 -21 -7 -39 -2 -16 5 -31 5 -34 0z"/>
<path d="M5357 4439 c4 -13 8 -18 11 -10 2 7 -1 18 -6 23 -8 8 -9 4 -5 -13z"/>
<path d="M5127 3785 c3 -8 9 -12 14 -9 12 7 11 11 -5 17 -10 4 -13 1 -9 -8z"/>
<path d="M6900 3410 c36 -11 52 -11 45 0 -3 6 -21 10 -38 9 -31 -1 -31 -1 -7
-9z"/>
<path d="M6980 3400 c0 -5 9 -10 21 -10 11 0 17 5 14 10 -3 6 -13 10 -21 10
-8 0 -14 -4 -14 -10z"/>
<path d="M7037 3373 c-12 -11 -8 -20 17 -31 31 -14 41 -4 19 20 -17 19 -26 22
-36 11z"/>
<path d="M7110 3325 c14 -17 69 -39 77 -31 11 11 -12 27 -51 36 -30 6 -35 6
-26 -5z"/>
<path d="M7135 3270 c-18 -7 -18 -9 -3 -15 23 -9 39 -3 30 11 -4 7 -15 8 -27
4z"/>
<path d="M7190 3226 c0 -9 5 -16 10 -16 6 0 10 4 10 9 0 6 -4 13 -10 16 -5 3
-10 -1 -10 -9z"/>
<path d="M7020 3220 c0 -5 -7 -7 -15 -4 -8 4 -15 1 -15 -6 0 -15 52 -9 58 8 2
6 -3 12 -12 12 -9 0 -16 -4 -16 -10z"/>
<path d="M7140 3219 c0 -5 5 -7 10 -4 6 3 10 8 10 11 0 2 -4 4 -10 4 -5 0 -10
-5 -10 -11z"/>
<path d="M7127 3179 c7 -7 15 -10 18 -7 3 3 -2 9 -12 12 -14 6 -15 5 -6 -5z"/>
<path d="M7078 3163 c6 -2 18 -2 25 0 6 3 1 5 -13 5 -14 0 -19 -2 -12 -5z"/>
<path d="M7090 3136 c0 -18 88 -92 97 -82 13 12 -13 41 -45 51 -18 5 -32 15
-32 21 0 7 -4 16 -10 19 -5 3 -10 -1 -10 -9z"/>
<path d="M7092 3016 c-2 -24 33 -56 60 -56 8 0 6 5 -5 11 -9 6 -15 14 -12 19
8 13 -13 50 -28 50 -7 0 -14 -11 -15 -24z"/>
<path d="M7331 3004 c-7 -8 -19 -13 -26 -10 -7 2 -15 -4 -18 -15 -3 -12 0 -22
8 -25 18 -7 37 4 30 17 -4 5 5 9 18 9 20 0 24 4 20 20 -6 24 -13 25 -32 4z"/>
<path d="M6280 2900 c0 -5 5 -10 10 -10 6 0 10 5 10 10 0 6 -4 10 -10 10 -5 0
-10 -4 -10 -10z"/>
<path d="M6456 2895 c4 -8 13 -15 21 -15 13 0 13 3 3 15 -7 8 -16 15 -21 15
-5 0 -6 -7 -3 -15z"/>
<path d="M7215 2900 c3 -5 11 -10 16 -10 6 0 7 5 4 10 -3 6 -11 10 -16 10 -6
0 -7 -4 -4 -10z"/>
<path d="M7210 2860 c0 -12 28 -25 36 -17 3 3 -4 10 -15 17 -15 7 -21 7 -21 0z"/>
<path d="M6458 2844 c-9 -8 9 -44 22 -44 14 0 12 13 -3 34 -7 9 -16 14 -19 10z"/>
<path d="M7063 2750 c15 -12 32 -18 38 -15 14 10 1 21 -36 29 l-30 8 28 -22z"/>
<path d="M6995 2750 c3 -5 8 -10 11 -10 2 0 4 5 4 10 0 6 -5 10 -11 10 -5 0
-7 -4 -4 -10z"/>
<path d="M7050 2732 c0 -10 22 -32 32 -32 4 0 5 6 2 14 -6 16 -34 30 -34 18z"/>
<path d="M6292 2713 c2 -13 13 -18 38 -19 26 -1 28 -1 8 3 -16 2 -28 9 -28 14
0 6 5 7 10 4 6 -3 10 -1 10 4 0 6 -9 11 -21 11 -14 0 -19 -5 -17 -17z"/>
<path d="M6411 2701 c-7 -5 -9 -11 -4 -14 5 -3 15 -2 22 2 7 5 9 11 4 14 -5 3
-15 2 -22 -2z"/>
<path d="M6652 2676 c-1 -14 2 -26 8 -26 16 0 20 17 7 34 -11 15 -13 15 -15
-8z"/>
<path d="M6380 2670 c0 -5 5 -10 10 -10 6 0 10 5 10 10 0 6 -4 10 -10 10 -5 0
-10 -4 -10 -10z"/>
<path d="M6406 2613 c-6 -14 -5 -15 5 -6 7 7 10 15 7 18 -3 3 -9 -2 -12 -12z"/>
<path d="M6597 2610 c3 -13 14 -20 29 -20 32 0 30 6 -5 24 -27 15 -29 14 -24
-4z"/>
<path d="M6480 2585 c7 -8 20 -14 29 -14 13 1 13 2 -1 6 -10 2 -18 9 -18 14 0
5 -5 9 -11 9 -8 0 -8 -5 1 -15z"/>
<path d="M6876 2574 c-4 -9 1 -14 14 -14 23 0 27 15 6 23 -8 3 -17 -1 -20 -9z"/>
<path d="M6770 2570 c19 -13 30 -13 30 0 0 6 -10 10 -22 10 -19 0 -20 -2 -8
-10z"/>
<path d="M6330 2562 c0 -12 40 -33 50 -27 22 14 9 35 -20 35 -16 0 -30 -3 -30
-8z"/>
<path d="M6623 2545 c0 -22 3 -24 26 -18 33 8 35 9 28 28 -4 8 -17 15 -30 15
-19 0 -24 -5 -24 -25z"/>
<path d="M6703 2553 c9 -2 25 -2 35 0 9 3 1 5 -18 5 -19 0 -27 -2 -17 -5z"/>
<path d="M6855 2540 c3 -5 13 -10 21 -10 8 0 12 5 9 10 -3 6 -13 10 -21 10 -8
0 -12 -4 -9 -10z"/>
<path d="M6441 2531 c-7 -5 -9 -11 -5 -14 5 -3 15 1 22 9 14 16 5 18 -17 5z"/>
<path d="M6620 2500 c0 -5 5 -10 10 -10 6 0 10 5 10 10 0 6 -4 10 -10 10 -5 0
-10 -4 -10 -10z"/>
<path d="M6999 2487 c9 -12 5 -16 -20 -21 -17 -3 -28 -10 -24 -16 3 -5 -3 -10
-15 -10 -14 0 -20 -5 -18 -17 2 -12 -3 -18 -14 -17 -10 1 -16 -2 -13 -6 3 -5
0 -10 -6 -12 -8 -3 -6 -10 5 -21 24 -24 34 -21 28 8 -5 28 14 34 37 13 11 -10
13 -10 7 0 -4 6 -2 12 4 12 6 0 8 4 5 10 -3 5 5 15 19 22 30 13 36 52 10 62
-14 5 -15 4 -5 -7z"/>
<path d="M6840 2480 c0 -5 5 -12 10 -15 6 -4 8 -11 5 -16 -4 -5 -2 -9 4 -9 19
0 20 17 0 33 -10 9 -19 13 -19 7z"/>
<path d="M6250 2450 c0 -5 7 -10 16 -10 8 0 12 5 9 10 -3 6 -10 10 -16 10 -5
0 -9 -4 -9 -10z"/>
<path d="M6615 2450 c3 -5 8 -10 11 -10 2 0 4 5 4 10 0 6 -5 10 -11 10 -5 0
-7 -4 -4 -10z"/>
<path d="M6220 2441 c0 -5 7 -12 16 -15 14 -5 15 -4 4 9 -14 17 -20 19 -20 6z"/>
<path d="M6740 2446 c0 -2 8 -10 18 -17 15 -13 16 -12 3 4 -13 16 -21 21 -21
13z"/>
<path d="M6610 2420 c0 -5 4 -10 9 -10 6 0 13 5 16 10 3 6 -1 10 -9 10 -9 0
-16 -4 -16 -10z"/>
<path d="M6657 2423 c-3 -5 -2 -15 2 -22 7 -10 10 -10 16 -1 4 6 3 16 -3 22
-5 5 -12 6 -15 1z"/>
<path d="M7022 2378 c5 -15 28 -23 28 -10 0 5 -7 13 -16 16 -10 4 -14 1 -12
-6z"/>
<path d="M6998 2361 c13 -11 22 -23 22 -28 -1 -4 4 -9 10 -11 21 -7 -8 37 -33
48 l-22 11 23 -20z"/>
<path d="M6845 2210 c3 -5 11 -10 16 -10 6 0 7 5 4 10 -3 6 -11 10 -16 10 -6
0 -7 -4 -4 -10z"/>
<path d="M3275 3000 c3 -5 11 -10 16 -10 6 0 7 5 4 10 -3 6 -11 10 -16 10 -6
0 -7 -4 -4 -10z"/>
<path d="M3295 2890 c4 -6 11 -8 16 -5 14 9 11 15 -7 15 -8 0 -12 -5 -9 -10z"/>
<path d="M5500 7640 c0 -5 5 -10 11 -10 5 0 7 5 4 10 -3 6 -8 10 -11 10 -2 0
-4 -4 -4 -10z"/>
<path d="M4910 7266 c0 -14 5 -28 10 -31 6 -4 10 7 10 24 0 17 -4 31 -10 31
-5 0 -10 -11 -10 -24z"/>
<path d="M5636 7215 c-7 -20 11 -68 24 -60 5 3 10 0 10 -7 0 -9 3 -9 10 2 13
20 13 33 0 25 -5 -3 -10 1 -10 10 0 11 -5 15 -16 11 -12 -4 -14 -1 -9 14 7 23
0 27 -9 5z"/>
<path d="M4871 7114 c0 -11 3 -14 6 -6 3 7 2 16 -1 19 -3 4 -6 -2 -5 -13z"/>
<path d="M5671 7084 c0 -11 3 -14 6 -6 3 7 2 16 -1 19 -3 4 -6 -2 -5 -13z"/>
<path d="M5610 7014 c0 -8 5 -12 10 -9 6 4 8 11 5 16 -9 14 -15 11 -15 -7z"/>
<path d="M4587 6903 c-4 -3 -7 -11 -7 -17 0 -6 5 -5 12 2 6 6 9 14 7 17 -3 3
-9 2 -12 -2z"/>
<path d="M5695 6870 c-9 -16 -13 -30 -9 -30 4 0 1 -7 -6 -15 -10 -12 -10 -15
0 -15 7 0 10 -6 7 -13 -3 -8 -2 -20 3 -27 4 -7 4 -26 -1 -42 -7 -25 -6 -28 6
-18 16 13 38 107 29 122 -4 6 -7 24 -6 39 1 37 -4 36 -23 -1z"/>
<path d="M4590 6770 c0 -5 5 -10 10 -10 6 0 10 5 10 10 0 6 -4 10 -10 10 -5 0
-10 -4 -10 -10z"/>
<path d="M5408 6694 c-9 -8 3 -44 13 -38 5 3 9 -2 9 -11 0 -9 5 -13 10 -10 6
3 10 19 10 36 0 21 -5 29 -18 29 -10 0 -21 -3 -24 -6z"/>
<path d="M4353 6624 c-7 -7 -13 -19 -13 -26 0 -7 7 -2 16 10 18 26 16 37 -3
16z"/>
<path d="M5630 6515 c-7 -9 -11 -17 -9 -20 3 -2 10 5 17 15 14 24 10 26 -8 5z"/>
<path d="M5551 6489 c-9 -26 -9 -29 3 -20 16 14 28 51 16 51 -4 0 -13 -14 -19
-31z"/>
<path d="M5531 6401 c-7 -5 -12 -14 -10 -20 3 -7 11 -3 21 9 18 21 13 26 -11
11z"/>
<path d="M4575 6391 c-3 -5 -1 -12 5 -16 5 -3 10 1 10 9 0 18 -6 21 -15 7z"/>
<path d="M5447 6333 c-4 -3 -7 -11 -7 -17 0 -6 5 -5 12 2 6 6 9 14 7 17 -3 3
-9 2 -12 -2z"/>
<path d="M5605 6260 c-3 -5 -1 -10 4 -10 6 0 11 5 11 10 0 6 -2 10 -4 10 -3 0
-8 -4 -11 -10z"/>
<path d="M5307 6214 c-9 -9 4 -35 14 -28 5 3 9 12 9 20 0 14 -12 19 -23 8z"/>
<path d="M5337 6145 c-4 -8 -2 -15 4 -15 5 0 4 -12 -4 -27 -11 -23 -11 -33 -1
-52 11 -21 12 -22 17 -5 7 23 3 101 -5 109 -3 3 -8 -1 -11 -10z"/>
<path d="M5216 6135 c4 -8 8 -15 10 -15 2 0 4 7 4 15 0 8 -4 15 -10 15 -5 0
-7 -7 -4 -15z"/>
<path d="M4825 6100 c3 -5 8 -10 11 -10 2 0 4 5 4 10 0 6 -5 10 -11 10 -5 0
-7 -4 -4 -10z"/>
<path d="M4830 6061 c0 -6 5 -13 10 -16 6 -3 10 1 10 9 0 9 -4 16 -10 16 -5 0
-10 -4 -10 -9z"/>
<path d="M5210 5990 c0 -5 5 -10 10 -10 6 0 10 5 10 10 0 6 -4 10 -10 10 -5 0
-10 -4 -10 -10z"/>
<path d="M5077 5983 c-4 -3 -7 -11 -7 -17 0 -6 5 -5 12 2 6 6 9 14 7 17 -3 3
-9 2 -12 -2z"/>
<path d="M5182 5970 c0 -14 2 -19 5 -12 2 6 2 18 0 25 -3 6 -5 1 -5 -13z"/>
<path d="M5060 5930 c0 -10 5 -22 12 -26 7 -5 9 -2 5 9 -3 9 -1 17 6 20 6 2 4
6 -6 10 -12 5 -17 1 -17 -13z"/>
<path d="M5152 5900 c0 -14 2 -19 5 -12 2 6 2 18 0 25 -3 6 -5 1 -5 -13z"/>
<path d="M5068 5847 c-3 -15 -1 -30 4 -33 5 -4 8 -15 5 -25 -3 -11 -1 -17 4
-13 5 3 9 0 9 -6 0 -6 5 -8 11 -5 7 5 5 15 -6 31 -9 14 -14 28 -12 32 3 4 1
16 -3 27 -6 17 -7 16 -12 -8z"/>
<path d="M5140 5830 c0 -16 17 -20 28 -7 8 10 6 13 -9 14 -10 1 -19 -2 -19 -7z"/>
<path d="M5200 5799 c0 -5 5 -7 10 -4 6 3 10 8 10 11 0 2 -4 4 -10 4 -5 0 -10
-5 -10 -11z"/>
<path d="M5057 5746 c-8 -19 16 -38 37 -30 9 3 16 13 16 22 0 12 -3 13 -12 4
-17 -17 -29 -15 -22 3 4 8 2 15 -4 15 -5 0 -12 -6 -15 -14z"/>
<path d="M5088 5703 c-24 -6 -31 -32 -8 -30 11 1 22 8 25 16 7 17 5 18 -17 14z"/>
<path d="M5280 5684 c0 -8 5 -12 10 -9 6 3 10 10 10 16 0 5 -4 9 -10 9 -5 0
-10 -7 -10 -16z"/>
<path d="M5075 5650 c3 -5 8 -10 11 -10 2 0 4 5 4 10 0 6 -5 10 -11 10 -5 0
-7 -4 -4 -10z"/>
<path d="M5270 5650 c0 -5 5 -10 11 -10 5 0 7 5 4 10 -3 6 -8 10 -11 10 -2 0
-4 -4 -4 -10z"/>
<path d="M4786 5253 c-6 -14 -5 -15 5 -6 7 7 10 15 7 18 -3 3 -9 -2 -12 -12z"/>
<path d="M4770 5181 c0 -5 -9 -13 -21 -16 -16 -5 -18 -10 -10 -18 8 -8 14 -8
19 -2 4 6 16 12 27 13 28 5 29 9 6 22 -13 6 -21 7 -21 1z"/>
</g>
</svg>
