<?xml version="1.0" encoding="utf-8"?>
<!-- Generator: Adobe Illustrator 16.0.0, SVG Export Plug-In . SVG Version: 6.00 Build 0)  -->
<!DOCTYPE svg PUBLIC "-//W3C//DTD SVG 1.1//EN" "http://www.w3.org/Graphics/SVG/1.1/DTD/svg11.dtd">
<svg version="1.1" id="Layer_1" xmlns="http://www.w3.org/2000/svg" xmlns:xlink="http://www.w3.org/1999/xlink" x="0px" y="0px"
	 width="3000px" height="3000px" viewBox="0 0 3000 3000" enable-background="new 0 0 3000 3000" xml:space="preserve">
<g>
	<g>
		<path fill="#FFFFFF" d="M2996.387,2069.988c-0.354-457.549-1.011-1394.505-0.702-1852.053
			c0.017-25.813-7.708-44.151-26.136-61.637c-41.76-39.625-81.736-81.102-122.646-121.618c-8.553-8.469-18.007-16.028-33.974-30.132
			v1518.913c-2.607,1.385-5.203,2.761-7.81,4.142c-23.676-28.276-47.358-56.561-75.1-89.7
			c-78.498,79.426-147.863,148.49-215.39,219.281c-9.011,9.441-12.243,27.688-12.268,41.869
			c-0.678,366.744-0.869,733.494,0.301,1100.239c0.049,17.682,9.02,39.136,21.035,52.269
			c40.317,44.094,84.253,84.87,126.057,127.645c15.066,15.428,24.748,18.563,41.855-0.199
			c90.187-98.864,181.221-196.993,273.933-293.478c24.252-25.239,31.562-51.437,31.351-84.878
			C2995.786,2423.764,2996.521,2246.867,2996.387,2069.988z M2813.79,2800.969c-0.057,15.77-15.065,31.48-23.106,47.217
			c-12.203-6.834-25.064-12.719-36.496-20.67c-58.475-40.703-72.018-96.103-71.136-166.637
			c3.964-314.514,1.706-629.107,1.697-943.674v-45.629c5.178-3.631,10.355-7.266,15.542-10.892
			c36.994,40.999,74.465,81.601,110.465,123.457c5.061,5.888,3.911,17.974,3.911,27.192
			C2814.842,2141.209,2815.15,2471.09,2813.79,2800.969z M2236.168,1947.38c86.348-83.192,171.177-167.933,256.092-251.661
			c-82.791-80.875-162.26-158.492-248.291-242.517c-58.876,60.403-120.777,126.3-185.623,189.148
			c-21.904,21.23-27.959,42.969-27.898,71.488c0.625,325.304,4.926,650.708-2.181,975.861
			c-2.282,104.146,19.225,184.33,104.432,245.85c25.101,18.121,45.409,42.859,61.329,58.215
			c89.539-87.786,175.425-171.99,265.695-260.507c-23.362,2.034-75.911,58.044-75.911,58.044s-48.487,44.561-71.151,71.082
			c-32.902-32.963-50.523-57.227-76.262-79.232c-20.727-17.738-27.375-37.264-27.273-64.063
			c0.935-235.719,0.951-471.453-0.016-707.18C2209.008,1985.005,2216.724,1966.109,2236.168,1947.38z M2212.533,1929.901v-260.705
			c43.842,47.794,85.064,92.735,134.783,146.934c-35.758,35.339-79.449,78.53-123.178,121.715
			C2220.281,1935.205,2216.391,1932.553,2212.533,1929.901z M2009.566,2069.988c-0.35-457.549-1.012-1394.505-0.703-1852.053
			c0.016-25.813-7.708-44.151-26.137-61.637c-41.754-39.625-81.734-81.102-122.645-121.618
			c-8.553-8.469-18.006-16.028-33.971-30.132v1518.913c-2.606,1.385-5.205,2.761-7.813,4.142
			c-23.676-28.276-47.355-56.561-75.1-89.7c-78.498,79.426-147.863,148.49-215.389,219.281
			c-9.012,9.441-12.244,27.688-12.269,41.869c-0.679,366.744-0.869,733.494,0.3,1100.239c0.049,17.682,9.02,39.136,21.037,52.269
			c40.316,44.094,84.252,84.87,126.06,127.645c15.066,15.428,24.743,18.563,41.856-0.199
			c90.182-98.864,181.217-196.993,273.932-293.478c24.252-25.239,31.559-51.437,31.347-84.878
			C2008.965,2423.764,2009.699,2246.867,2009.566,2069.988z M1826.969,2800.969c-0.057,15.77-15.066,31.48-23.107,47.217
			c-12.199-6.834-25.063-12.719-36.495-20.67c-58.474-40.703-72.017-96.103-71.132-166.637
			c3.959-314.514,1.701-629.107,1.693-943.674v-45.629c5.178-3.631,10.355-7.266,15.541-10.892
			c36.996,40.999,74.467,81.601,110.467,123.457c5.063,5.888,3.91,17.974,3.91,27.192
			C1828.021,2141.209,1828.329,2471.09,1826.969,2800.969z M1346.265,2635.469c0.91-334.891,0.701-669.777,0.082-1004.665
			c-0.033-16.788-1.344-38.392-11.306-49.495c-44.461-49.592-92.29-96.188-137.709-142.663
			c-45.154,44.492-86.208,84.933-131.922,129.978c26.114,25.223,50.766,50.428,76.971,73.896
			c19.992,17.922,26.806,38.242,26.731,65.252c-0.861,345.506-0.569,691.013-0.577,1036.52c0,8.252,3.09,18.555-0.701,24.39
			c-11.817,18.136-24.719,36.374-40.914,50.274c-3.389,2.9-24.476-10.701-34.254-19.988c-33.036-31.371-65.822-63.196-96.169-97.117
			c-10.39-11.623-18.821-29.889-18.807-45.146c0.15-369.985-2.39-949.488-2.39-974.171c0-24.687,3.442-76.103-14.481-99.274
			c-40.427-52.276-93.165-95.087-139.547-140.414c-27.482,26.106-55.208,52.179-82.65,78.553
			c-45.604,43.874-46.74,45.276,1.236,89.15c40.403,36.958,56.037,77.982,55.528,134.58
			c-3.025,333.685-1.647,667.407-1.062,1001.112c0.032,16.771,0.861,38.725,10.833,49.441
			c60.594,65.081,123.955,127.596,191.74,196.396c63.243-65.531,122.538-126.962,189.05-195.893
			c60.582,64.829,119.423,127.811,177.706,190.191c51.3-50.445,97.289-95.673,150.436-147.934
			c-45.338-42.092-88.147-84.902-134.412-123.591C1353.203,2692.713,1346.171,2668.24,1346.265,2635.469z M677.234,2651.4
			c-0.57-19.834,3.247-685.49,0.81-2460.458c-0.016-12.92-4.099-29.231-12.483-38.199c-44.829-48.045-91.639-94.263-144.936-148.4
			c-29.326,31.682-53.371,58.998-78.85,84.902c-46.9,47.676-49.682,50.145,0.593,93.536c43.233,37.316,56.053,79.118,55.844,135.321
			c-2.953,845.715-1.905,2373.655-1.905,2373.655s13.728,117.244,66.391,158.76c31.793,25.072,58.433,56.662,82.243,80.24
			c45.956-42.9,87.609-81.784,138.27-129.078c-22.642-18.477-42.875-36.391-64.557-52.35
			C684.958,2724.521,678.394,2691.933,677.234,2651.4z M211.917,1947.38c86.353-83.192,171.182-167.933,256.096-251.661
			c-82.792-80.875-162.262-158.492-248.293-242.517c-58.876,60.403-120.775,126.3-185.623,189.148
			c-21.903,21.23-27.958,42.969-27.898,71.488c0.625,325.304,4.926,650.708-2.181,975.861
			c-2.28,104.146,19.225,184.33,104.432,245.85c25.103,18.121,45.414,42.859,61.329,58.215
			c89.541-87.786,175.426-171.99,265.699-260.507c-23.365,2.034-75.914,58.044-75.914,58.044s-48.486,44.561-71.15,71.082
			c-32.904-32.963-50.522-57.227-76.261-79.232c-20.728-17.738-27.375-37.264-27.276-64.063
			c0.937-235.719,0.953-471.453-0.014-707.18C184.759,1985.005,192.479,1966.109,211.917,1947.38z M188.286,1929.901v-260.705
			c43.842,47.794,85.063,92.735,134.786,146.934c-35.759,35.339-79.453,78.53-123.179,121.715
			C196.035,1935.205,192.144,1932.553,188.286,1929.901z"/>
	</g>
	<g>
		<path fill="none" stroke="#FFFFFF" stroke-miterlimit="10" d="M2996.387,2069.988c-0.354-457.549-1.011-1394.505-0.702-1852.053
			c0.017-25.813-7.708-44.151-26.136-61.637c-41.76-39.625-81.736-81.102-122.646-121.618c-8.553-8.469-18.007-16.028-33.974-30.132
			v1518.913c-2.607,1.385-5.203,2.761-7.81,4.142c-23.676-28.276-47.358-56.561-75.1-89.7
			c-78.498,79.426-147.863,148.49-215.39,219.281c-9.011,9.441-12.243,27.688-12.268,41.869
			c-0.678,366.744-0.869,733.494,0.301,1100.239c0.049,17.682,9.02,39.136,21.035,52.269
			c40.317,44.094,84.253,84.87,126.057,127.645c15.066,15.428,24.748,18.563,41.855-0.199
			c90.187-98.864,181.221-196.993,273.933-293.478c24.252-25.239,31.562-51.437,31.351-84.878
			C2995.786,2423.764,2996.521,2246.867,2996.387,2069.988z M2813.79,2800.969c-0.057,15.77-15.065,31.48-23.106,47.217
			c-12.203-6.834-25.064-12.719-36.496-20.67c-58.475-40.703-72.018-96.103-71.136-166.637
			c3.964-314.514,1.706-629.107,1.697-943.674v-45.629c5.178-3.631,10.355-7.266,15.542-10.892
			c36.994,40.999,74.465,81.601,110.465,123.457c5.061,5.888,3.911,17.974,3.911,27.192
			C2814.842,2141.209,2815.15,2471.09,2813.79,2800.969z M2236.168,1947.38c86.348-83.192,171.177-167.933,256.092-251.661
			c-82.791-80.875-162.26-158.492-248.291-242.517c-58.876,60.403-120.777,126.3-185.623,189.148
			c-21.904,21.23-27.959,42.969-27.898,71.488c0.625,325.304,4.926,650.708-2.181,975.861
			c-2.282,104.146,19.225,184.33,104.432,245.85c25.101,18.121,45.409,42.859,61.329,58.215
			c89.539-87.786,175.425-171.99,265.695-260.507c-23.362,2.034-75.911,58.044-75.911,58.044s-48.487,44.561-71.151,71.082
			c-32.902-32.963-50.523-57.227-76.262-79.232c-20.727-17.738-27.375-37.264-27.273-64.063
			c0.935-235.719,0.951-471.453-0.016-707.18C2209.008,1985.005,2216.724,1966.109,2236.168,1947.38z M2212.533,1929.901v-260.705
			c43.842,47.794,85.064,92.735,134.783,146.934c-35.758,35.339-79.449,78.53-123.178,121.715
			C2220.281,1935.205,2216.391,1932.553,2212.533,1929.901z M2009.566,2069.988c-0.35-457.549-1.012-1394.505-0.703-1852.053
			c0.016-25.813-7.708-44.151-26.137-61.637c-41.754-39.625-81.734-81.102-122.645-121.618
			c-8.553-8.469-18.006-16.028-33.971-30.132v1518.913c-2.606,1.385-5.205,2.761-7.813,4.142
			c-23.676-28.276-47.355-56.561-75.1-89.7c-78.498,79.426-147.863,148.49-215.389,219.281
			c-9.012,9.441-12.244,27.688-12.269,41.869c-0.679,366.744-0.869,733.494,0.3,1100.239c0.049,17.682,9.02,39.136,21.037,52.269
			c40.316,44.094,84.252,84.87,126.06,127.645c15.066,15.428,24.743,18.563,41.856-0.199
			c90.182-98.864,181.217-196.993,273.932-293.478c24.252-25.239,31.559-51.437,31.347-84.878
			C2008.965,2423.764,2009.699,2246.867,2009.566,2069.988z M1826.969,2800.969c-0.057,15.77-15.066,31.48-23.107,47.217
			c-12.199-6.834-25.063-12.719-36.495-20.67c-58.474-40.703-72.017-96.103-71.132-166.637
			c3.959-314.514,1.701-629.107,1.693-943.674v-45.629c5.178-3.631,10.355-7.266,15.541-10.892
			c36.996,40.999,74.467,81.601,110.467,123.457c5.063,5.888,3.91,17.974,3.91,27.192
			C1828.021,2141.209,1828.329,2471.09,1826.969,2800.969z M1346.265,2635.469c0.91-334.891,0.701-669.777,0.082-1004.665
			c-0.033-16.788-1.344-38.392-11.306-49.495c-44.461-49.592-92.29-96.188-137.709-142.663
			c-45.154,44.492-86.208,84.933-131.922,129.978c26.114,25.223,50.766,50.428,76.971,73.896
			c19.992,17.922,26.806,38.242,26.731,65.252c-0.861,345.506-0.569,691.013-0.577,1036.52c0,8.252,3.09,18.555-0.701,24.39
			c-11.817,18.136-24.719,36.374-40.914,50.274c-3.389,2.9-24.476-10.701-34.254-19.988c-33.036-31.371-65.822-63.196-96.169-97.117
			c-10.39-11.623-18.821-29.889-18.807-45.146c0.15-369.985-2.39-949.488-2.39-974.171c0-24.687,3.442-76.103-14.481-99.274
			c-40.427-52.276-93.165-95.087-139.547-140.414c-27.482,26.106-55.208,52.179-82.65,78.553
			c-45.604,43.874-46.74,45.276,1.236,89.15c40.403,36.958,56.037,77.982,55.528,134.58
			c-3.025,333.685-1.647,667.407-1.062,1001.112c0.032,16.771,0.861,38.725,10.833,49.441
			c60.594,65.081,123.955,127.596,191.74,196.396c63.243-65.531,122.538-126.962,189.05-195.893
			c60.582,64.829,119.423,127.811,177.706,190.191c51.3-50.445,97.289-95.673,150.436-147.934
			c-45.338-42.092-88.147-84.902-134.412-123.591C1353.203,2692.713,1346.171,2668.24,1346.265,2635.469z M677.234,2651.4
			c-0.57-19.834,3.247-685.49,0.81-2460.458c-0.016-12.92-4.099-29.231-12.483-38.199c-44.829-48.045-91.639-94.263-144.936-148.4
			c-29.326,31.682-53.371,58.998-78.85,84.902c-46.9,47.676-49.682,50.145,0.593,93.536c43.233,37.316,56.053,79.118,55.844,135.321
			c-2.953,845.715-1.905,2373.655-1.905,2373.655s13.728,117.244,66.391,158.76c31.793,25.072,58.433,56.662,82.243,80.24
			c45.956-42.9,87.609-81.784,138.27-129.078c-22.642-18.477-42.875-36.391-64.557-52.35
			C684.958,2724.521,678.394,2691.933,677.234,2651.4z M211.917,1947.38c86.353-83.192,171.182-167.933,256.096-251.661
			c-82.792-80.875-162.262-158.492-248.293-242.517c-58.876,60.403-120.775,126.3-185.623,189.148
			c-21.903,21.23-27.958,42.969-27.898,71.488c0.625,325.304,4.926,650.708-2.181,975.861
			c-2.28,104.146,19.225,184.33,104.432,245.85c25.103,18.121,45.414,42.859,61.329,58.215
			c89.541-87.786,175.426-171.99,265.699-260.507c-23.365,2.034-75.914,58.044-75.914,58.044s-48.486,44.561-71.15,71.082
			c-32.904-32.963-50.522-57.227-76.261-79.232c-20.728-17.738-27.375-37.264-27.276-64.063
			c0.937-235.719,0.953-471.453-0.014-707.18C184.759,1985.005,192.479,1966.109,211.917,1947.38z M188.286,1929.901v-260.705
			c43.842,47.794,85.063,92.735,134.786,146.934c-35.759,35.339-79.453,78.53-123.179,121.715
			C196.035,1935.205,192.144,1932.553,188.286,1929.901z"/>
	</g>
</g>
</svg>
